<?xml version="1.0" encoding="utf-8"?>
<!-- Generator: Adobe Illustrator 16.0.0, SVG Export Plug-In . SVG Version: 6.00 Build 0)  -->
<!DOCTYPE svg PUBLIC "-//W3C//DTD SVG 1.1//EN" "http://www.w3.org/Graphics/SVG/1.1/DTD/svg11.dtd">
<svg version="1.1" id="Layer_1" xmlns="http://www.w3.org/2000/svg" xmlns:xlink="http://www.w3.org/1999/xlink" x="0px" y="0px"
	 width="88.809px" height="30px" viewBox="0 0 88.809 30" enable-background="new 0 0 88.809 30" xml:space="preserve">
<rect x="0.11" fill="#FFFFFF" width="4.758" height="21.311"/>
<polygon fill="#FFFFFF" points="22.317,0 22.317,14.391 14.696,0 9.145,0 9.145,21.311 13.489,21.311 13.489,5.977 21.558,21.311 
	22.317,21.311 26.662,21.311 26.662,0 "/>
<rect x="48.973" fill="#FFFFFF" width="4.759" height="16.759"/>
<polygon fill="#FFFFFF" points="72.87,0 66.973,0 62.214,0 56.317,0 56.317,3.932 62.214,3.932 62.214,16.759 66.973,16.759 
	66.973,3.932 72.87,3.932 "/>
<polygon fill="#FFFFFF" points="80.111,17.38 80.111,12.311 87.974,12.311 87.974,8.38 80.111,8.38 80.111,3.932 88.387,3.932 
	88.387,0 75.353,0 75.353,1.966 75.353,3.932 75.353,8.38 75.353,12.311 75.353,17.38 75.353,18.725 75.353,21.311 88.801,21.311 
	88.801,17.38 "/>
<polygon fill="#CE2922" points="35.886,17.38 45.921,2.709 45.921,0 39.662,0 30.455,0 30.455,3.932 39.662,3.932 29.55,18.641 
	29.55,21.311 35.886,21.311 72.87,21.311 72.87,17.38 "/>
<path fill="#FFFFFF" d="M7.117,29.777c0,0.027-0.007,0.051-0.021,0.071c-0.014,0.02-0.039,0.035-0.073,0.048
	c-0.035,0.012-0.079,0.021-0.133,0.03c-0.054,0.008-0.124,0.013-0.21,0.013c-0.08,0-0.149-0.005-0.206-0.013
	c-0.058-0.009-0.103-0.019-0.136-0.03c-0.033-0.013-0.056-0.028-0.07-0.048c-0.014-0.021-0.021-0.044-0.021-0.071v-5.701h-0.01
	L3.93,29.803c-0.01,0.023-0.024,0.044-0.043,0.061s-0.045,0.031-0.081,0.043c-0.036,0.012-0.078,0.021-0.126,0.025
	c-0.049,0.005-0.107,0.008-0.175,0.008c-0.071,0-0.132-0.004-0.182-0.011c-0.051-0.006-0.093-0.016-0.126-0.027
	s-0.06-0.026-0.079-0.043s-0.031-0.035-0.038-0.056l-2.206-5.727H0.87v5.701c0,0.027-0.007,0.051-0.021,0.071
	c-0.014,0.02-0.038,0.035-0.073,0.048c-0.035,0.012-0.08,0.021-0.136,0.03c-0.056,0.008-0.126,0.013-0.213,0.013
	c-0.083,0-0.153-0.005-0.208-0.013c-0.056-0.009-0.1-0.019-0.133-0.03c-0.033-0.013-0.056-0.028-0.068-0.048
	C0.006,29.828,0,29.805,0,29.777v-6.02c0-0.142,0.038-0.242,0.113-0.303c0.076-0.062,0.159-0.092,0.252-0.092h0.534
	c0.109,0,0.206,0.011,0.288,0.03c0.082,0.021,0.154,0.053,0.216,0.097c0.062,0.044,0.113,0.1,0.154,0.167
	c0.042,0.067,0.077,0.146,0.108,0.237l1.872,4.74h0.025l1.947-4.725c0.038-0.102,0.079-0.188,0.124-0.259
	c0.044-0.07,0.093-0.127,0.146-0.169s0.112-0.072,0.177-0.091c0.065-0.019,0.14-0.028,0.226-0.028h0.56
	c0.051,0,0.101,0.008,0.147,0.022c0.046,0.016,0.085,0.039,0.118,0.071s0.059,0.073,0.08,0.121c0.021,0.05,0.031,0.109,0.031,0.18
	V29.777z"/>
<path fill="#FFFFFF" d="M12.279,29.55c0,0.061-0.003,0.113-0.01,0.159s-0.019,0.083-0.036,0.114
	c-0.017,0.03-0.036,0.052-0.058,0.065c-0.022,0.013-0.047,0.021-0.073,0.021H8.961c-0.077,0-0.151-0.026-0.22-0.079
	c-0.069-0.052-0.104-0.144-0.104-0.275v-5.837c0-0.132,0.035-0.224,0.104-0.275c0.069-0.053,0.143-0.079,0.22-0.079h3.106
	c0.027,0,0.051,0.007,0.073,0.021s0.04,0.035,0.053,0.065c0.013,0.03,0.024,0.068,0.033,0.114c0.008,0.045,0.012,0.103,0.012,0.169
	c0,0.062-0.004,0.114-0.012,0.159c-0.009,0.046-0.02,0.083-0.033,0.111c-0.014,0.029-0.031,0.05-0.053,0.063
	s-0.046,0.021-0.073,0.021h-2.56v2.054h2.195c0.027,0,0.051,0.008,0.073,0.022c0.022,0.016,0.041,0.036,0.056,0.063
	s0.026,0.064,0.033,0.111c0.007,0.047,0.011,0.103,0.011,0.167c0,0.061-0.004,0.113-0.011,0.156
	c-0.006,0.044-0.018,0.08-0.033,0.106c-0.015,0.027-0.034,0.046-0.056,0.059c-0.022,0.012-0.046,0.018-0.073,0.018H9.507v2.342
	h2.595c0.026,0,0.051,0.007,0.073,0.021c0.021,0.014,0.041,0.034,0.058,0.062c0.017,0.029,0.029,0.066,0.036,0.111
	C12.276,29.426,12.279,29.482,12.279,29.55z"/>
<path fill="#FFFFFF" d="M18.393,26.54c0,0.566-0.073,1.062-0.218,1.484c-0.145,0.424-0.356,0.774-0.635,1.053
	c-0.278,0.277-0.62,0.486-1.024,0.624c-0.405,0.139-0.887,0.208-1.447,0.208h-1.386c-0.077,0-0.151-0.026-0.22-0.079
	c-0.069-0.052-0.104-0.144-0.104-0.275v-5.837c0-0.132,0.035-0.224,0.104-0.275c0.069-0.053,0.143-0.079,0.22-0.079h1.482
	c0.567,0,1.046,0.074,1.437,0.221s0.719,0.357,0.983,0.632c0.265,0.275,0.465,0.607,0.602,0.999S18.393,26.048,18.393,26.54z
	 M17.478,26.575c0-0.354-0.044-0.684-0.132-0.988c-0.087-0.306-0.225-0.569-0.412-0.792c-0.187-0.223-0.424-0.396-0.71-0.521
	c-0.287-0.125-0.656-0.188-1.108-0.188H14.23v5.094h0.896c0.418,0,0.77-0.053,1.057-0.157c0.287-0.104,0.526-0.265,0.718-0.48
	c0.192-0.216,0.337-0.486,0.433-0.812C17.43,27.406,17.478,27.021,17.478,26.575z"/>
<path fill="#FFFFFF" d="M20.438,29.777c0,0.027-0.007,0.051-0.02,0.071c-0.014,0.02-0.037,0.035-0.071,0.048
	c-0.034,0.012-0.079,0.021-0.134,0.03c-0.056,0.008-0.125,0.013-0.21,0.013c-0.081,0-0.15-0.005-0.208-0.013
	c-0.057-0.009-0.103-0.019-0.136-0.03c-0.034-0.013-0.058-0.028-0.071-0.048c-0.014-0.021-0.021-0.044-0.021-0.071v-6.282
	c0-0.027,0.008-0.051,0.023-0.07c0.015-0.021,0.041-0.037,0.076-0.049c0.036-0.012,0.081-0.021,0.137-0.03
	c0.056-0.008,0.122-0.013,0.2-0.013c0.084,0,0.154,0.005,0.21,0.013c0.056,0.009,0.101,0.019,0.134,0.03s0.057,0.028,0.071,0.049
	c0.013,0.02,0.02,0.043,0.02,0.07V29.777z"/>
<path fill="#FFFFFF" d="M26.932,29.601c0.027,0.074,0.042,0.134,0.043,0.18c0.001,0.045-0.011,0.08-0.038,0.104
	s-0.072,0.039-0.134,0.045c-0.062,0.007-0.146,0.011-0.25,0.011s-0.188-0.003-0.25-0.008c-0.062-0.005-0.11-0.014-0.142-0.025
	c-0.032-0.012-0.056-0.028-0.071-0.048c-0.015-0.021-0.03-0.046-0.043-0.076l-0.562-1.593h-2.722l-0.536,1.573
	c-0.01,0.029-0.023,0.056-0.04,0.078c-0.017,0.021-0.042,0.041-0.073,0.056c-0.032,0.015-0.078,0.026-0.137,0.032
	c-0.059,0.007-0.136,0.011-0.23,0.011c-0.098,0-0.178-0.005-0.24-0.013c-0.062-0.009-0.106-0.025-0.131-0.049
	c-0.025-0.023-0.037-0.058-0.036-0.104c0.002-0.045,0.016-0.105,0.043-0.179l2.195-6.08c0.014-0.037,0.031-0.067,0.053-0.091
	s0.054-0.043,0.096-0.057c0.042-0.013,0.096-0.022,0.162-0.027c0.065-0.005,0.149-0.008,0.25-0.008c0.108,0,0.197,0.003,0.269,0.008
	c0.071,0.005,0.128,0.015,0.172,0.027c0.043,0.014,0.077,0.033,0.101,0.059c0.023,0.025,0.042,0.057,0.056,0.094L26.932,29.601z
	 M24.115,24.233h-0.005l-1.128,3.263h2.276L24.115,24.233z"/>
<path fill="#FFFFFF" d="M30.042,28.185c0-0.186,0.025-0.362,0.076-0.529c0.05-0.167,0.129-0.328,0.238-0.485
	c0.108-0.157,0.249-0.309,0.422-0.455c0.173-0.147,0.383-0.294,0.629-0.442c-0.135-0.183-0.25-0.348-0.346-0.496
	s-0.175-0.287-0.238-0.415s-0.107-0.25-0.134-0.366c-0.027-0.116-0.041-0.233-0.041-0.352c0-0.209,0.036-0.409,0.106-0.6
	s0.185-0.359,0.341-0.506c0.157-0.146,0.358-0.263,0.604-0.349s0.544-0.129,0.896-0.129c0.296,0,0.554,0.031,0.771,0.096
	c0.217,0.064,0.397,0.155,0.541,0.273s0.251,0.26,0.324,0.427s0.109,0.354,0.109,0.56c0,0.199-0.032,0.381-0.096,0.546
	s-0.167,0.326-0.309,0.48c-0.142,0.155-0.323,0.31-0.544,0.463c-0.221,0.153-0.488,0.314-0.802,0.483
	c0.115,0.138,0.24,0.282,0.375,0.432c0.135,0.15,0.276,0.302,0.422,0.453s0.297,0.301,0.45,0.448
	c0.153,0.146,0.304,0.287,0.453,0.422c0.067-0.091,0.128-0.194,0.182-0.311c0.054-0.117,0.101-0.24,0.142-0.37
	c0.041-0.129,0.071-0.262,0.091-0.397c0.02-0.135,0.03-0.271,0.03-0.409v-0.183c0-0.033,0.006-0.061,0.018-0.083
	c0.012-0.021,0.031-0.04,0.058-0.056c0.027-0.015,0.067-0.025,0.119-0.032c0.052-0.007,0.121-0.011,0.205-0.011
	c0.074,0,0.138,0.002,0.19,0.005c0.052,0.004,0.095,0.012,0.129,0.023s0.058,0.03,0.073,0.056s0.022,0.06,0.022,0.104v0.127
	c0,0.188-0.016,0.374-0.048,0.556c-0.032,0.183-0.076,0.36-0.131,0.534s-0.125,0.34-0.208,0.498s-0.174,0.305-0.276,0.44
	c0.152,0.121,0.284,0.222,0.397,0.303c0.113,0.081,0.209,0.147,0.288,0.197c0.079,0.051,0.145,0.086,0.197,0.106
	s0.095,0.03,0.129,0.03s0.066-0.001,0.096-0.005s0.055,0.002,0.073,0.016c0.019,0.014,0.033,0.04,0.043,0.08
	c0.01,0.041,0.015,0.104,0.015,0.188s-0.002,0.151-0.005,0.202s-0.009,0.089-0.018,0.114s-0.023,0.046-0.043,0.062
	c-0.02,0.018-0.058,0.032-0.111,0.046c-0.054,0.014-0.125,0.021-0.212,0.021c-0.067,0-0.142-0.012-0.223-0.035
	c-0.081-0.024-0.175-0.065-0.283-0.124c-0.108-0.06-0.233-0.14-0.377-0.24c-0.143-0.102-0.311-0.229-0.503-0.385
	c-0.141,0.114-0.291,0.221-0.447,0.318c-0.157,0.099-0.324,0.182-0.501,0.251c-0.177,0.068-0.363,0.123-0.556,0.161
	C32.653,29.98,32.443,30,32.218,30c-0.212,0-0.414-0.019-0.604-0.056s-0.367-0.09-0.529-0.159c-0.162-0.069-0.307-0.155-0.435-0.261
	c-0.128-0.104-0.237-0.223-0.326-0.356s-0.158-0.282-0.207-0.448C30.067,28.556,30.042,28.376,30.042,28.185z M30.948,28.099
	c0,0.175,0.03,0.335,0.089,0.48c0.059,0.145,0.146,0.271,0.26,0.377c0.115,0.105,0.258,0.188,0.43,0.247
	c0.172,0.06,0.371,0.089,0.597,0.089c0.138,0,0.273-0.014,0.404-0.043c0.132-0.029,0.257-0.068,0.377-0.116
	c0.12-0.05,0.233-0.108,0.341-0.177c0.108-0.069,0.208-0.143,0.299-0.221c-0.176-0.152-0.35-0.31-0.524-0.473
	c-0.173-0.164-0.341-0.328-0.503-0.494c-0.162-0.164-0.318-0.329-0.468-0.492c-0.15-0.164-0.288-0.323-0.412-0.479
	c-0.168,0.108-0.31,0.215-0.422,0.321c-0.113,0.106-0.204,0.213-0.273,0.319c-0.069,0.105-0.119,0.213-0.149,0.32
	C30.963,27.867,30.948,27.979,30.948,28.099z M31.535,24.577c0,0.091,0.013,0.185,0.038,0.278c0.025,0.095,0.064,0.193,0.116,0.296
	s0.117,0.214,0.192,0.331c0.076,0.118,0.166,0.25,0.271,0.396c0.246-0.139,0.453-0.266,0.62-0.383
	c0.167-0.116,0.301-0.229,0.402-0.336c0.101-0.107,0.174-0.216,0.22-0.324c0.046-0.107,0.068-0.222,0.068-0.344
	c0-0.098-0.018-0.191-0.053-0.28c-0.035-0.089-0.091-0.169-0.169-0.237c-0.077-0.069-0.175-0.125-0.293-0.165
	s-0.26-0.061-0.425-0.061c-0.179,0-0.33,0.022-0.453,0.068s-0.224,0.106-0.303,0.182c-0.08,0.076-0.138,0.165-0.175,0.266
	C31.554,24.365,31.535,24.47,31.535,24.577z"/>
<path fill="#FFFFFF" d="M46.892,29.777c0,0.027-0.007,0.051-0.021,0.071c-0.014,0.02-0.039,0.035-0.073,0.048
	c-0.035,0.012-0.079,0.021-0.133,0.03c-0.054,0.008-0.124,0.013-0.211,0.013c-0.08,0-0.148-0.005-0.206-0.013
	c-0.058-0.009-0.103-0.019-0.136-0.03c-0.033-0.013-0.056-0.028-0.07-0.048c-0.014-0.021-0.021-0.044-0.021-0.071v-5.701h-0.01
	l-2.307,5.727c-0.01,0.023-0.024,0.044-0.043,0.061s-0.046,0.031-0.081,0.043s-0.078,0.021-0.126,0.025s-0.107,0.008-0.174,0.008
	c-0.071,0-0.132-0.004-0.183-0.011c-0.05-0.006-0.092-0.016-0.126-0.027c-0.034-0.012-0.06-0.026-0.079-0.043
	s-0.031-0.035-0.038-0.056l-2.206-5.727h-0.005v5.701c0,0.027-0.007,0.051-0.021,0.071c-0.014,0.02-0.038,0.035-0.073,0.048
	c-0.035,0.012-0.08,0.021-0.136,0.03c-0.056,0.008-0.127,0.013-0.213,0.013c-0.083,0-0.153-0.005-0.208-0.013
	c-0.056-0.009-0.1-0.019-0.133-0.03c-0.033-0.013-0.055-0.028-0.067-0.048c-0.012-0.021-0.018-0.044-0.018-0.071v-6.02
	c0-0.142,0.038-0.242,0.113-0.303c0.075-0.062,0.159-0.092,0.252-0.092h0.534c0.109,0,0.205,0.011,0.288,0.03
	c0.082,0.021,0.154,0.053,0.215,0.097s0.113,0.1,0.154,0.167s0.077,0.146,0.108,0.237l1.872,4.74h0.025l1.947-4.725
	c0.038-0.102,0.079-0.188,0.124-0.259c0.044-0.07,0.093-0.127,0.146-0.169c0.053-0.042,0.112-0.072,0.177-0.091
	c0.065-0.019,0.14-0.028,0.226-0.028h0.56c0.051,0,0.101,0.008,0.146,0.022c0.046,0.016,0.085,0.039,0.118,0.071
	c0.032,0.032,0.059,0.073,0.08,0.121c0.02,0.05,0.03,0.109,0.03,0.18V29.777z"/>
<path fill="#FFFFFF" d="M53.386,29.601c0.027,0.074,0.041,0.134,0.042,0.18c0.002,0.045-0.011,0.08-0.038,0.104
	c-0.027,0.023-0.071,0.039-0.133,0.045c-0.062,0.007-0.146,0.011-0.251,0.011s-0.188-0.003-0.25-0.008
	c-0.062-0.005-0.109-0.014-0.141-0.025c-0.032-0.012-0.056-0.028-0.071-0.048c-0.015-0.021-0.03-0.046-0.043-0.076l-0.562-1.593
	h-2.721l-0.536,1.573c-0.01,0.029-0.024,0.056-0.041,0.078c-0.017,0.021-0.042,0.041-0.073,0.056
	c-0.032,0.015-0.078,0.026-0.137,0.032c-0.06,0.007-0.136,0.011-0.23,0.011c-0.098,0-0.178-0.005-0.24-0.013
	c-0.062-0.009-0.106-0.025-0.131-0.049s-0.037-0.058-0.036-0.104c0.002-0.045,0.017-0.105,0.043-0.179l2.195-6.08
	c0.013-0.037,0.031-0.067,0.053-0.091c0.022-0.023,0.054-0.043,0.096-0.057c0.042-0.013,0.096-0.022,0.162-0.027
	s0.15-0.008,0.25-0.008c0.108,0,0.197,0.003,0.269,0.008c0.071,0.005,0.127,0.015,0.172,0.027c0.043,0.014,0.077,0.033,0.101,0.059
	c0.023,0.025,0.042,0.057,0.056,0.094L53.386,29.601z M50.568,24.233h-0.004l-1.128,3.263h2.276L50.568,24.233z"/>
<path fill="#FFFFFF" d="M58.704,29.777c0,0.027-0.005,0.051-0.015,0.071c-0.01,0.02-0.032,0.037-0.066,0.051
	c-0.034,0.013-0.081,0.023-0.142,0.029c-0.061,0.007-0.142,0.011-0.243,0.011c-0.087,0-0.159-0.004-0.215-0.011
	c-0.056-0.006-0.101-0.018-0.134-0.032c-0.034-0.015-0.06-0.036-0.079-0.063c-0.019-0.026-0.035-0.061-0.048-0.102l-0.602-1.542
	c-0.071-0.176-0.145-0.337-0.22-0.483c-0.076-0.146-0.166-0.273-0.271-0.379c-0.104-0.106-0.228-0.189-0.369-0.248
	c-0.142-0.06-0.312-0.089-0.511-0.089h-0.582v2.787c0,0.027-0.007,0.051-0.022,0.071c-0.015,0.02-0.039,0.035-0.071,0.048
	c-0.032,0.012-0.076,0.021-0.131,0.03c-0.056,0.008-0.125,0.013-0.209,0.013c-0.084,0-0.154-0.005-0.21-0.013
	c-0.056-0.009-0.101-0.019-0.134-0.03c-0.034-0.013-0.057-0.028-0.071-0.048c-0.014-0.021-0.02-0.044-0.02-0.071v-6.06
	c0-0.132,0.035-0.224,0.104-0.275c0.069-0.053,0.143-0.079,0.22-0.079h1.392c0.165,0,0.302,0.005,0.412,0.013
	c0.109,0.009,0.208,0.018,0.296,0.028c0.253,0.044,0.477,0.113,0.67,0.207c0.194,0.095,0.357,0.214,0.488,0.359
	s0.23,0.311,0.296,0.498s0.099,0.394,0.099,0.62c0,0.219-0.029,0.415-0.088,0.589s-0.144,0.327-0.255,0.46
	c-0.111,0.134-0.245,0.249-0.4,0.347c-0.155,0.098-0.329,0.181-0.521,0.248c0.108,0.047,0.206,0.107,0.294,0.18
	c0.087,0.072,0.169,0.159,0.245,0.261c0.076,0.101,0.147,0.217,0.215,0.349s0.135,0.28,0.202,0.445l0.587,1.441
	c0.047,0.121,0.078,0.206,0.091,0.255C58.697,29.713,58.704,29.75,58.704,29.777z M57.394,25.18c0-0.257-0.058-0.474-0.172-0.65
	s-0.307-0.304-0.576-0.382c-0.084-0.023-0.18-0.04-0.286-0.051c-0.106-0.01-0.245-0.015-0.417-0.015h-0.734v2.205h0.85
	c0.229,0,0.427-0.027,0.594-0.084c0.167-0.055,0.306-0.133,0.417-0.232c0.111-0.099,0.193-0.216,0.245-0.352
	C57.368,25.484,57.394,25.338,57.394,25.18z"/>
<path fill="#FFFFFF" d="M63.98,29.767c0,0.027-0.005,0.052-0.018,0.074c-0.012,0.021-0.034,0.039-0.068,0.053
	c-0.033,0.014-0.079,0.024-0.136,0.033c-0.058,0.008-0.132,0.013-0.223,0.013c-0.118,0-0.214-0.005-0.288-0.016
	c-0.075-0.01-0.13-0.028-0.167-0.056c-0.038-0.026-0.067-0.057-0.091-0.091l-2.408-3.272v3.272c0,0.023-0.006,0.047-0.02,0.068
	c-0.014,0.022-0.037,0.038-0.071,0.051c-0.034,0.012-0.079,0.021-0.134,0.03c-0.056,0.008-0.126,0.013-0.209,0.013
	c-0.081,0-0.15-0.005-0.208-0.013c-0.058-0.009-0.103-0.019-0.137-0.03c-0.034-0.013-0.057-0.028-0.071-0.051
	c-0.014-0.021-0.021-0.045-0.021-0.068v-6.282c0-0.027,0.007-0.051,0.021-0.07c0.014-0.021,0.037-0.037,0.071-0.049
	s0.079-0.021,0.137-0.03c0.057-0.008,0.126-0.013,0.208-0.013c0.083,0,0.154,0.005,0.209,0.013c0.056,0.009,0.101,0.019,0.134,0.03
	s0.057,0.028,0.071,0.049c0.014,0.02,0.02,0.043,0.02,0.07v2.908l2.317-2.908c0.021-0.03,0.044-0.056,0.071-0.076
	c0.027-0.02,0.06-0.036,0.099-0.048c0.039-0.012,0.086-0.021,0.142-0.027c0.056-0.007,0.127-0.011,0.215-0.011
	c0.087,0,0.158,0.005,0.212,0.013c0.054,0.009,0.097,0.02,0.129,0.033c0.032,0.014,0.054,0.03,0.066,0.051
	c0.012,0.02,0.018,0.042,0.018,0.065c0,0.044-0.011,0.088-0.033,0.132s-0.063,0.104-0.124,0.182l-2.17,2.595l2.337,3.105
	c0.057,0.088,0.092,0.148,0.104,0.18C63.975,29.721,63.98,29.747,63.98,29.767z"/>
<path fill="#FFFFFF" d="M68.559,29.55c0,0.061-0.003,0.113-0.01,0.159s-0.019,0.083-0.035,0.114
	c-0.017,0.03-0.037,0.052-0.058,0.065c-0.022,0.013-0.047,0.021-0.074,0.021H65.24c-0.077,0-0.151-0.026-0.22-0.079
	c-0.069-0.052-0.104-0.144-0.104-0.275v-5.837c0-0.132,0.034-0.224,0.104-0.275c0.069-0.053,0.143-0.079,0.22-0.079h3.106
	c0.027,0,0.051,0.007,0.073,0.021s0.04,0.035,0.053,0.065c0.013,0.03,0.024,0.068,0.033,0.114c0.008,0.045,0.012,0.103,0.012,0.169
	c0,0.062-0.004,0.114-0.012,0.159c-0.009,0.046-0.02,0.083-0.033,0.111c-0.014,0.029-0.031,0.05-0.053,0.063
	s-0.046,0.021-0.073,0.021h-2.56v2.054h2.195c0.027,0,0.051,0.008,0.073,0.022c0.022,0.016,0.041,0.036,0.056,0.063
	s0.026,0.064,0.033,0.111c0.007,0.047,0.011,0.103,0.011,0.167c0,0.061-0.004,0.113-0.011,0.156
	c-0.006,0.044-0.018,0.08-0.033,0.106c-0.015,0.027-0.034,0.046-0.056,0.059c-0.022,0.012-0.046,0.018-0.073,0.018h-2.195v2.342
	h2.595c0.027,0,0.051,0.007,0.074,0.021c0.021,0.014,0.041,0.034,0.058,0.062c0.017,0.029,0.028,0.066,0.035,0.111
	C68.555,29.426,68.559,29.482,68.559,29.55z"/>
<path fill="#FFFFFF" d="M74.137,23.737c0,0.064-0.003,0.12-0.01,0.168c-0.007,0.047-0.018,0.085-0.033,0.113
	c-0.016,0.028-0.034,0.05-0.056,0.063s-0.046,0.02-0.073,0.02h-1.841v5.676c0,0.027-0.007,0.051-0.021,0.071
	c-0.013,0.02-0.037,0.035-0.07,0.048c-0.034,0.012-0.079,0.021-0.134,0.03c-0.056,0.008-0.125,0.013-0.21,0.013
	c-0.081,0-0.15-0.005-0.207-0.013c-0.058-0.009-0.103-0.019-0.137-0.03c-0.034-0.013-0.058-0.028-0.071-0.048
	c-0.013-0.021-0.02-0.044-0.02-0.071v-5.676h-1.841c-0.027,0-0.052-0.006-0.074-0.02s-0.04-0.035-0.053-0.063
	c-0.013-0.028-0.024-0.066-0.033-0.113c-0.009-0.048-0.013-0.104-0.013-0.168c0-0.063,0.004-0.12,0.013-0.169
	c0.008-0.049,0.02-0.089,0.033-0.119c0.014-0.03,0.031-0.052,0.053-0.065s0.046-0.021,0.074-0.021h4.552
	c0.027,0,0.051,0.007,0.073,0.021s0.04,0.035,0.056,0.065c0.015,0.03,0.026,0.07,0.033,0.119S74.137,23.674,74.137,23.737z"/>
<path fill="#FFFFFF" d="M75.864,29.777c0,0.027-0.007,0.051-0.02,0.071c-0.014,0.02-0.037,0.035-0.071,0.048
	c-0.034,0.012-0.079,0.021-0.134,0.03c-0.056,0.008-0.126,0.013-0.209,0.013c-0.082,0-0.15-0.005-0.208-0.013
	c-0.058-0.009-0.103-0.019-0.137-0.03c-0.034-0.013-0.057-0.028-0.071-0.048c-0.014-0.021-0.021-0.044-0.021-0.071v-6.282
	c0-0.027,0.008-0.051,0.023-0.07c0.015-0.021,0.041-0.037,0.076-0.049c0.036-0.012,0.081-0.021,0.137-0.03
	c0.056-0.008,0.122-0.013,0.2-0.013c0.083,0,0.154,0.005,0.209,0.013c0.056,0.009,0.101,0.019,0.134,0.03s0.057,0.028,0.071,0.049
	c0.013,0.02,0.02,0.043,0.02,0.07V29.777z"/>
<path fill="#FFFFFF" d="M82.332,29.55c0,0.067-0.011,0.125-0.034,0.172c-0.023,0.047-0.052,0.086-0.089,0.116
	c-0.036,0.03-0.077,0.052-0.123,0.065s-0.09,0.021-0.136,0.021h-0.287c-0.091,0-0.17-0.009-0.238-0.027
	c-0.068-0.019-0.133-0.053-0.194-0.102c-0.061-0.049-0.122-0.115-0.183-0.199c-0.061-0.085-0.125-0.192-0.194-0.324l-1.997-3.723
	c-0.104-0.192-0.209-0.394-0.316-0.604c-0.106-0.211-0.205-0.416-0.296-0.615h-0.01c0.006,0.243,0.012,0.491,0.015,0.744
	s0.005,0.504,0.005,0.754v3.95c0,0.023-0.007,0.047-0.021,0.068c-0.015,0.022-0.039,0.038-0.072,0.051
	c-0.034,0.012-0.079,0.021-0.134,0.03c-0.055,0.008-0.125,0.013-0.211,0.013c-0.085,0-0.155-0.005-0.211-0.013
	c-0.055-0.009-0.099-0.019-0.13-0.03c-0.032-0.013-0.055-0.028-0.069-0.051c-0.014-0.021-0.021-0.045-0.021-0.068v-6.04
	c0-0.135,0.039-0.23,0.115-0.288c0.077-0.057,0.16-0.086,0.251-0.086h0.428c0.101,0,0.186,0.009,0.253,0.025
	c0.068,0.018,0.129,0.045,0.183,0.084c0.054,0.038,0.106,0.093,0.157,0.161c0.05,0.069,0.103,0.156,0.159,0.261l1.535,2.873
	c0.095,0.176,0.186,0.347,0.274,0.514c0.088,0.167,0.172,0.331,0.254,0.493c0.082,0.162,0.162,0.321,0.242,0.479
	c0.08,0.156,0.159,0.314,0.237,0.473h0.005c-0.007-0.267-0.011-0.544-0.013-0.832c-0.001-0.289-0.003-0.565-0.003-0.832V23.51
	c0-0.023,0.008-0.045,0.021-0.065c0.015-0.02,0.039-0.038,0.072-0.053c0.034-0.016,0.078-0.026,0.133-0.033
	c0.056-0.007,0.127-0.01,0.216-0.01c0.078,0,0.146,0.003,0.203,0.01c0.057,0.007,0.101,0.018,0.133,0.033
	c0.032,0.015,0.056,0.033,0.07,0.053c0.014,0.021,0.021,0.042,0.021,0.065V29.55z"/>
<path fill="#FFFFFF" d="M88.809,24.254c0,0.063-0.003,0.12-0.01,0.169c-0.006,0.05-0.017,0.09-0.03,0.122
	c-0.013,0.032-0.03,0.055-0.05,0.068s-0.042,0.02-0.066,0.02c-0.041,0-0.108-0.031-0.203-0.096
	c-0.094-0.063-0.221-0.135-0.379-0.213c-0.159-0.077-0.349-0.148-0.569-0.212c-0.221-0.064-0.483-0.097-0.787-0.097
	c-0.361,0-0.685,0.066-0.971,0.198c-0.287,0.131-0.53,0.313-0.729,0.546c-0.199,0.232-0.352,0.509-0.458,0.829
	c-0.106,0.321-0.159,0.668-0.159,1.042c0,0.418,0.058,0.79,0.174,1.113c0.117,0.323,0.277,0.597,0.483,0.819
	c0.206,0.223,0.451,0.391,0.735,0.506c0.285,0.115,0.598,0.172,0.938,0.172c0.202,0,0.407-0.024,0.615-0.073s0.401-0.122,0.58-0.22
	v-1.907h-1.518c-0.058,0-0.101-0.029-0.129-0.086c-0.029-0.058-0.043-0.147-0.043-0.269c0-0.063,0.003-0.119,0.01-0.164
	c0.007-0.046,0.018-0.083,0.033-0.111c0.015-0.028,0.033-0.05,0.053-0.063c0.021-0.013,0.045-0.021,0.076-0.021h2.079
	c0.037,0,0.074,0.008,0.111,0.021c0.037,0.014,0.071,0.034,0.101,0.061c0.03,0.027,0.054,0.064,0.071,0.111
	c0.017,0.048,0.026,0.102,0.026,0.162v2.493c0,0.088-0.016,0.164-0.046,0.229c-0.03,0.063-0.095,0.12-0.192,0.169
	c-0.098,0.05-0.224,0.103-0.379,0.159c-0.155,0.058-0.315,0.106-0.48,0.146c-0.165,0.041-0.332,0.071-0.5,0.092
	c-0.169,0.02-0.336,0.03-0.501,0.03c-0.505,0-0.958-0.078-1.355-0.235c-0.398-0.156-0.734-0.38-1.009-0.67s-0.485-0.638-0.63-1.042
	c-0.145-0.405-0.217-0.856-0.217-1.356c0-0.519,0.078-0.989,0.235-1.411c0.157-0.421,0.377-0.78,0.663-1.077
	c0.285-0.296,0.627-0.526,1.027-0.69c0.399-0.163,0.842-0.245,1.328-0.245c0.25,0,0.484,0.022,0.703,0.065
	c0.22,0.044,0.414,0.096,0.584,0.154c0.17,0.06,0.313,0.123,0.43,0.192c0.116,0.069,0.196,0.126,0.24,0.17
	c0.043,0.044,0.074,0.094,0.091,0.151C88.8,24.063,88.809,24.146,88.809,24.254z"/>
</svg>
