<?xml version="1.0" standalone="no"?>
<!DOCTYPE svg PUBLIC "-//W3C//DTD SVG 1.1//EN" "http://www.w3.org/Graphics/SVG/1.1/DTD/svg11.dtd" >
<svg xmlns="http://www.w3.org/2000/svg">
<metadata>Generated by IcoMoon</metadata>
<defs>
<font id="inzite" horiz-adv-x="512">
<font-face units-per-em="512" ascent="480" descent="-32" />
<missing-glyph horiz-adv-x="512" />
<glyph unicode="&#x20;" d="" horiz-adv-x="256" />
<glyph unicode="&#xe600;" d="M287.462 195.738c-40.525-40.55-87.475-79.309-106.035-60.723-26.573 26.547-42.931 49.69-101.504 2.637s-13.594-78.438 12.16-104.192c29.696-29.671 140.391-1.562 249.831 107.853 109.389 109.415 137.549 220.135 107.827 249.831-25.728 25.753-57.088 70.707-104.166 12.16s-23.936-74.931 2.637-101.504c18.509-18.586-20.224-65.51-60.749-106.061z" />
<glyph unicode="&#xe601;" d="M355.251 486.4h-198.502c-28.749 0-52.249-23.501-52.249-52.249v-407.501c0-28.723 23.501-52.25 52.249-52.25h198.502c28.749 0 52.25 23.526 52.25 52.25v407.501c0 28.749-23.501 52.25-52.25 52.25zM256-4.711c-20.173 0-36.557 11.699-36.557 26.137s16.384 26.137 36.557 26.137c20.199 0 36.557-11.699 36.557-26.137s-16.358-26.137-36.557-26.137zM365.696 73.677h-219.417v344.807h219.417v-344.807z" />
<glyph unicode="&#xe602;" d="M40.806 351.079c12.493-6.733 185.575-99.686 192.025-103.143 6.425-3.456 14.771-5.12 23.168-5.12 8.423 0 16.768 1.664 23.193 5.145 6.451 3.456 179.507 96.409 192 103.143 12.519 6.707 24.346 27.776 1.382 27.776h-433.127c-22.963 0-11.162-21.069 1.357-27.801zM476.493 299.879c-14.208-7.424-188.595-98.586-197.299-103.143s-14.771-5.146-23.193-5.146c-8.397 0-14.464 0.589-23.168 5.146s-183.117 95.744-197.299 103.143c-10.009 5.222-9.933-0.896-9.933-5.607 0-4.71 0-187.776 0-187.776 0-10.752 14.31-24.576 25.395-24.576h410.035c11.111 0 25.37 13.824 25.37 24.55 0 0 0 183.065 0 187.776 0 4.736 0.103 10.855-9.907 5.632z" />
<glyph unicode="&#xe603;" d="M478.567 418.944c-8.781-3.098-443.418-156.237-451.968-159.257-7.27-2.56-8.909-8.832-0.256-12.263 10.266-4.121 97.177-38.938 97.177-38.938h-0.025l57.626-23.091c0 0 277.427 203.75 281.19 206.49 3.763 2.765 8.141-2.432 5.401-5.401-2.739-2.995-201.498-217.959-201.498-217.959-0.026 0-0.026 0-0.026 0l-11.571-12.902 15.335-8.243c0 0 119.040-64.077 127.514-68.659 7.424-3.993 17.101-0.666 19.251 8.576 2.534 10.906 72.832 313.907 74.394 320.615 2.048 8.781-3.738 14.131-12.544 11.034zM180.608 47.053c0-6.323 3.559-8.064 8.474-3.61 6.4 5.837 72.935 65.536 72.935 65.536l-81.408 42.137v-104.064z" />
<glyph unicode="&#xe604;" d="M423.962 398.387c-36.915 36.941-64.64 31.411-64.64 31.411l-277.146-277.146-25.856-121.933 121.933 25.856 277.12 277.12c0 0 5.555 27.725-31.411 64.691zM170.982 71.245l-41.549-8.96c-4.019 7.501-8.858 15.002-17.689 23.859-8.832 8.832-16.359 13.645-23.859 17.664l8.986 41.575 12.007 12.007c0 0 22.63-0.461 48.153-25.984 25.549-25.549 26.010-48.179 26.010-48.179l-12.058-11.981z" />
<glyph unicode="&#xe605;" d="M256 435.2c-70.707 0-128-57.319-128-128 0-122.215 128-281.6 128-281.6s128 159.386 128 281.6c0 70.681-57.293 128-128 128zM256 236.544c-38.169 0-69.12 30.951-69.12 69.12s30.951 69.12 69.12 69.12 69.12-30.95 69.12-69.12-30.95-69.12-69.12-69.12z" />
<glyph unicode="&#xe606;" d="M440.038 380.135c-42.803 39.296-112.205 39.296-155.008 0l-29.030-26.675-29.056 26.675c-42.803 39.296-112.179 39.296-154.982 0-48.154-44.186-48.154-115.815 0-160.026l184.038-168.909 184.039 168.909c48.154 44.211 48.154 115.84 0 160.026z" />
<glyph unicode="&#xe607;" d="M256 455.68l61.133-172.083h164.147l-133.939-101.069 47.872-177.408-139.213 106.342-139.213-106.342 47.872 177.408-133.939 101.069h164.147z" />
<glyph unicode="&#xe608;" d="M409.6 409.6h-307.2c-28.16 0-51.2-23.040-51.2-51.2v-179.2c0-28.16 23.040-51.2 51.2-51.2h102.4l102.4-76.8v76.8h102.4c28.16 0 51.2 23.040 51.2 51.2v179.2c0 28.16-23.040 51.2-51.2 51.2z" />
<glyph unicode="&#xe609;" d="M125.85 389.043c-41.216 0-74.65-34.381-74.65-76.8s33.433-76.8 74.65-76.8c74.624 0 24.883-148.48-74.65-148.48v-35.815c177.613 0 247.219 337.895 74.65 337.895zM340.864 389.043c-41.216 0-74.649-34.381-74.649-76.8s33.433-76.8 74.649-76.8c74.624 0 24.883-148.48-74.649-148.48v-35.815c177.638 0 247.245 337.895 74.649 337.895z" />
<glyph unicode="&#xe60a;" d="M480.512 222.72l-205.415 205.594c-10.496 10.906-27.673 10.906-38.169 0l-205.44-205.594c-10.521-10.88-6.605-19.815 8.704-19.815h42.829v-157.901c0-11.392 0.487-20.711 21.094-20.711h99.712v158.413h104.32v-158.413h104.678c15.719 0 16.154 9.293 16.154 20.711v157.901h42.803c15.283 0 19.226 8.909 8.729 19.815z" />
<glyph unicode="&#xe60b;" d="M449.152 90.419l-96.743 96.743c14.592 23.987 22.989 52.096 22.989 82.227 0 87.45-75.801 163.251-163.277 163.251-87.45 0-158.362-70.912-158.362-158.361 0-87.475 75.776-163.277 163.251-163.277 29.082 0 56.32 7.885 79.744 21.581l97.255-97.28c9.549-9.523 24.96-9.523 34.457 0l24.141 24.115c9.498 9.523 6.041 21.504-3.456 31.002zM102.502 274.279c0 60.544 49.075 109.645 109.619 109.645 60.569 0 114.535-53.965 114.535-114.534s-49.075-109.645-109.645-109.645-114.509 53.965-114.509 114.535z" />
<glyph unicode="&#xe60c;" d="M429.696 230.4c0 26.829 16.512 48 41.344 62.541-4.505 14.95-10.394 29.312-17.69 42.803-27.904-7.296-50.457 3.635-69.401 22.579-18.995 18.97-24.806 41.549-17.51 69.401-13.491 7.296-27.801 13.261-42.803 17.715-14.541-24.858-40.832-41.37-67.635-41.37-26.803 0-53.069 16.512-67.635 41.37-15.001-4.454-29.312-10.419-42.803-17.69 7.27-27.879 1.485-50.457-17.485-69.427-18.969-18.944-41.549-29.875-69.401-22.605-7.296-13.465-13.235-27.827-17.715-42.777 24.858-14.541 41.37-35.712 41.37-62.541 0-26.803-16.512-53.095-41.37-67.661 4.48-14.976 10.419-29.312 17.715-42.803 27.879 7.296 50.432 1.485 69.401-17.485 18.97-18.969 24.755-41.523 17.485-69.401 13.491-7.296 27.827-13.261 42.803-17.715 14.566 24.883 40.832 41.37 67.635 41.37 26.803 0 53.12-16.512 67.661-41.37 15.002 4.48 29.312 10.419 42.803 17.715-7.296 27.878-1.51 50.432 17.51 69.401 18.944 18.944 41.498 29.875 69.401 22.605 7.296 13.491 13.209 27.827 17.69 42.803-24.858 14.567-41.37 35.738-41.37 62.541zM256 136.883c-51.635 0-93.491 41.882-93.491 93.517s41.856 93.517 93.491 93.517c51.661 0 93.517-41.882 93.517-93.517s-41.856-93.517-93.517-93.517z" />
<glyph unicode="&#xe60d;" d="M302.055 455.705h-41.063v-334.643c-22.707 8.755-52.096 8.883-81.075-1.664-51.917-18.893-82.867-64.87-69.12-102.656 13.773-37.811 67.021-53.12 118.938-34.227 44.109 16.051 72.96 51.635 72.243 85.12l0.077 273.664c71.603-11.264 76.493-101.811 67.917-127.207-3.277-9.625 2.483-16.819 13.312 0 77.184 120.141-81.229 173.107-81.229 241.613z" />
<glyph unicode="&#xe60e;" d="M156.416 416.538v-303.795c-16.537 3.456-35.789 2.151-54.886-4.915-42.931-15.949-58.087-54.784-46.694-86.681 11.366-31.923 44.979-44.825 87.91-28.877 36.454 13.543 60.339 43.546 59.725 71.859 0 0 0 161.101 0 250.957l181.785 41.651v-192.768c-16.538 3.456-35.789 2.151-54.887-4.915-42.957-15.949-58.112-54.784-46.72-86.681 11.392-31.923 44.979-44.825 87.936-28.877 36.48 13.543 60.313 43.546 59.75 71.859v360.038l-273.92-58.854z" />
<glyph unicode="&#xe60f;" d="M452.864 365.414c-12.851 76.237-82.432 127.155-155.367 113.69-72.96-13.44-134.502-72.089-121.651-148.326 2.791-16.41 10.445-42.112 19.533-60.544l-132.48-197.709c-4.889-7.296-7.654-20.454-6.195-29.209l8.525-50.457c1.485-8.755 9.549-14.643 17.92-13.107l38.809 7.142c8.397 1.562 19.021 8.935 23.654 16.409l52.864 85.274 35.456 6.553 61.159 99.277c20.122-3.558 48.947-2.355 65.997 0.793 72.986 13.466 104.653 93.978 91.776 170.215zM388.25 326.349c-20.070-29.927-40.525-8.832-69.197 12.16-28.647 20.966-54.656 33.869-34.586 63.795 20.070 29.952 59.546 37.248 88.217 16.256 28.672-20.966 35.635-62.285 15.565-92.211z" />
<glyph unicode="&#xe610;" d="M256 476.185c-135.526 0-245.76-110.285-245.76-245.785 0-135.527 110.234-245.786 245.76-245.786s245.76 110.259 245.76 245.786c0 135.501-110.233 245.785-245.76 245.785zM465.613 230.4c0-47.949-16.281-92.186-43.418-127.514-7.68 6.016-15.821 22.221-8.141 39.014 7.731 16.896 9.753 56.013 7.987 71.219-1.69 15.207-9.6 51.866-31.104 52.224-21.427 0.333-36.147 7.399-48.896 32.845-26.445 52.915 49.639 63.104 23.194 92.416-7.399 8.218-45.645-33.894-51.251 22.221-0.384 4.019 3.456 10.035 8.576 16.256 83.046-27.904 143.053-106.393 143.053-198.681zM227.2 437.913c-4.992-9.728-18.227-13.721-26.291-21.069-17.485-15.821-25.011-13.645-34.458-28.851-9.472-15.207-40.090-37.095-40.090-48.103 0-10.983 15.462-23.987 23.194-21.453 7.731 2.56 28.109 2.407 40.089-1.792 12.006-4.25 100.224-8.474 72.089-83.047-8.909-23.706-47.923-19.712-58.317-58.983-1.561-5.76-6.938-30.361-7.322-38.4-0.614-12.442 8.806-59.341-3.2-59.341-12.058 0-44.467 41.959-44.467 49.562s-8.423 34.279-8.423 57.088-38.835 22.451-38.835 52.787c0 27.392 21.069 41.011 16.333 54.093-4.659 13.056-41.651 13.517-57.063 15.104 26.931 69.939 90.343 121.856 166.758 132.403zM190.080 31.488c12.595 6.63 13.875 15.232 25.293 15.693 13.056 0.563 23.68 5.094 38.374 8.32 13.082 2.841 36.429 16.103 57.037 17.792 17.331 1.433 51.584-0.896 60.8-17.639-33.178-22.016-72.909-34.867-115.584-34.867-23.040 0-45.184 3.789-65.92 10.701z" />
<glyph unicode="&#xe611;" d="M194.867 377.395c-9.395 8.832-22.093 8.832-31.513 0l-163.353-146.995 163.353-146.97c9.421-8.858 22.119-8.858 31.513 0s9.395 23.193 0 32.051l-126.823 114.919 126.848 114.893c9.369 8.858 9.369 23.219-0.025 32.103zM348.647 377.395c-9.421 8.832-22.093 8.832-31.514 0-9.395-8.883-8.909-23.219 0.538-32.077l126.285-114.918-126.31-114.919c-9.421-8.858-9.933-23.193-0.538-32.051 9.421-8.858 22.093-8.858 31.514 0l163.379 146.97-163.353 146.995z" />
<glyph unicode="&#xe612;" d="M183.936-4.352c20.198-13.056 43.597-21.888 72.064-21.197 28.467-0.691 51.84 8.141 72.038 21.197v52.992h-144.102v-52.992zM325.017 79.385c0 111.514 118.553 147.2 109.671 258.279-5.581 70.093-53.069 148.736-178.688 148.736s-173.107-78.643-178.688-148.736c-8.883-111.104 109.645-146.765 109.645-258.279h138.061zM131.533 333.619c5.325 66.534 50.585 100.275 124.467 100.275s119.142-33.741 124.442-100.275c2.893-36.429-18.048-60.723-46.336-100.506-20.813-29.338-45.44-63.975-56.96-109.082h-42.317c-11.52 45.107-36.121 79.719-56.986 109.082-28.262 39.808-49.203 64.077-46.31 100.506z" />
<glyph unicode="&#xe613;" d="M51.251 414.745v-60.621c181.401 0 328.448-147.072 328.448-328.474h60.647c0 214.887-174.208 389.095-389.094 389.095zM51.251 293.478v-60.647c114.432 0 207.206-92.749 207.206-207.181h60.595c0 147.891-119.885 267.827-267.801 267.827zM109.363 141.875c-32.077 0-58.112-26.035-58.112-58.137s26.035-58.112 58.112-58.112c32.102 0 58.137 26.010 58.137 58.112s-26.035 58.137-58.138 58.137z" />
<glyph unicode="&#xe614;" d="M256 128c-28.006 0-50.662-22.938-50.662-51.2s22.656-51.2 50.662-51.2c27.981 0 50.663 22.938 50.663 51.2s-22.682 51.2-50.663 51.2zM148.48 185.395l35.84-36.199c39.577 39.987 103.757 39.987 143.36 0l35.84 36.199c-59.392 60.007-155.673 60.007-215.040 0zM76.8 257.817l35.814-36.199c79.181 79.975 207.539 79.975 286.72 0l35.865 36.199c-98.969 99.968-259.43 99.968-358.4 0zM5.12 330.215l35.84-36.199c118.784 119.962 311.322 119.962 430.080 0l35.84 36.199c-138.547 139.981-363.213 139.981-501.76 0z" />
<glyph unicode="&#xe615;" d="M212.352 51.2c-11.136 0-21.683 5.197-28.441 14.157l-91.495 120.781c-11.904 15.719-8.806 38.093 6.912 49.997 15.744 11.929 38.093 8.806 49.997-6.912l60.185-79.463 151.347 242.97c10.419 16.717 32.435 21.837 49.178 11.418 16.717-10.394 21.837-32.435 11.392-49.152l-178.765-286.976c-6.221-10.010-16.947-16.281-28.697-16.793-0.537-0.026-1.075-0.026-1.613-0.026z" />
<glyph unicode="&#xe616;" d="M367.334 149.709l-70.605 80.691 70.605 80.691c12.007 12.007 12.007 31.463 0 43.443-12.007 11.981-31.462 11.981-43.443 0l-67.891-77.593-67.865 77.568c-12.006 12.006-31.463 12.006-43.443 0-11.981-12.007-11.981-31.463 0-43.443l70.579-80.666-70.605-80.691c-11.981-12.007-11.981-31.411 0-43.392 12.006-12.007 31.463-12.007 43.443 0l67.891 77.543 67.865-77.543c12.007-12.007 31.462-12.007 43.443 0s12.007 31.385 0.026 43.392z" />
<glyph unicode="&#xe617;" d="M389.094 256h-266.214c-14.157 0-15.36-11.469-15.36-25.6s1.203-25.6 15.36-25.6h266.214c14.157 0 15.385 11.469 15.385 25.6s-1.229 25.6-15.385 25.6z" />
<glyph unicode="&#xe618;" d="M389.094 256h-107.52v107.52c0 14.131-11.443 15.36-25.6 15.36-14.131 0-25.6-1.203-25.6-15.36v-107.52h-107.495c-14.157 0-15.36-11.469-15.36-25.6s1.203-25.6 15.36-25.6h107.495v-107.52c0-14.131 11.469-15.36 25.6-15.36 14.157 0 25.6 1.229 25.6 15.36v107.52h107.52c14.157 0 15.385 11.469 15.385 25.6s-1.229 25.6-15.385 25.6z" />
<glyph unicode="&#xe619;" d="M318.259 486.4c34.304 0 51.456-23.398 51.456-50.125 0-33.382-29.798-64.281-68.557-64.281-32.512 0-51.456 19.2-50.56 50.918 0 26.752 22.528 63.488 67.661 63.488zM212.71-25.6c-27.085 0-46.925 16.691-27.981 90.189l31.078 130.329c5.401 20.864 6.298 29.235 0 29.235-8.141 0-43.264-14.413-64.051-28.621l-13.517 22.553c65.869 55.962 141.619 88.755 174.106 88.755 27.059 0 31.539-32.563 18.048-82.662l-35.61-137.011c-6.298-24.217-3.61-32.563 2.688-32.563 8.141 0 34.739 10.061 60.903 30.925l15.36-20.864c-64.025-65.178-133.965-90.265-161.024-90.265z" />
<glyph unicode="&#xe61a;" d="M360.704 429.209c-29.209 21.069-65.843 31.591-109.978 31.591-33.587 0-61.901-7.424-84.915-22.221-36.531-23.194-55.936-62.566-58.291-118.118h84.633c0 16.179 4.71 31.769 14.157 46.771s25.472 22.502 48.077 22.502c22.963 0 38.81-6.093 47.462-18.253 8.678-12.211 13.005-25.702 13.005-40.499 0-12.877-6.451-24.653-14.233-35.379-4.275-6.247-9.933-11.981-16.921-17.255 0 0-45.901-29.44-66.073-53.095-11.699-13.722-12.749-34.253-13.773-63.719-0.077-2.099 0.717-6.425 8.064-6.425s59.315 0 65.843 0 7.885 4.839 7.987 6.963c0.461 10.726 1.664 16.205 3.635 22.4 3.712 11.699 13.747 21.913 25.063 30.695l23.296 16.077c21.017 16.384 37.811 29.824 45.209 40.371 12.647 17.357 21.529 38.707 21.529 64.025 0 41.344-14.618 72.525-43.776 93.568zM249.369 104.345c-29.184 0.87-53.248-19.303-54.169-50.944-0.922-31.616 21.965-52.505 51.149-53.376 30.464-0.896 53.888 18.637 54.81 50.253 0.896 31.642-21.325 53.171-51.789 54.067z" />
<glyph unicode="&#xe61b;" d="M427.469 243.533l-219.161 135.783c-15.975 10.47-29.030 2.739-29.030-17.152v-263.577c0-19.891 13.082-27.597 29.030-17.127l219.187 135.782c0 0 7.783 5.478 7.783 13.159-0.026 7.655-7.808 13.133-7.808 13.133z" />
<glyph unicode="&#xe61c;" d="M345.6 409.6c-25.447 0-46.080-7.834-46.080-33.28v-291.84c0-25.447 20.634-33.28 46.080-33.28s46.080 7.834 46.080 33.28v291.84c0 25.446-20.634 33.28-46.080 33.28zM166.4 409.6c-25.446 0-46.080-7.834-46.080-33.28v-291.84c0-25.447 20.634-33.28 46.080-33.28s46.080 7.834 46.080 33.28v291.84c0 25.446-20.633 33.28-46.080 33.28z" />
<glyph unicode="&#xe61d;" d="M297.293 432.333l61.543-49.817-77.568-75.008 51.2-51.2 75.059 77.619 50.995-62.899v161.305h-161.229zM178.893 205.107l-75.034-77.568-50.432 62.233v-161.28h161.28l-62.233 50.406 77.594 75.034-51.174 51.175z" />
<glyph unicode="&#xe61e;" d="M104.96 125.44l-79.36-74.24 51.2-51.2 74.24 79.36 51.2-53.76v151.040h-151.040l53.76-51.2zM486.4 409.6l-51.2 51.2-74.24-79.36-51.2 53.76v-151.040h151.040l-53.76 51.2 79.36 74.24z" />
<glyph unicode="&#xe61f;" d="M292.787 370.791c-10.701-10.445-115.251-120.218-115.251-120.218-5.709-5.581-8.55-12.877-8.55-20.173s2.841-14.592 8.55-20.173c0 0 104.551-109.773 115.251-120.192 10.701-10.445 29.952-11.161 41.37 0 11.392 11.136 12.288 26.675-0.026 40.32l-95.923 100.045 95.923 100.045c12.313 13.67 11.418 29.209 0.026 40.345-11.443 11.136-30.695 10.445-41.37 0z" />
<glyph unicode="&#xe620;" d="M396.365 267.187c-10.419-10.701-120.192-115.277-120.192-115.277-5.581-5.709-12.877-8.55-20.173-8.55-7.322 0-14.618 2.841-20.173 8.55 0 0-109.773 104.576-120.218 115.277-10.419 10.701-11.136 29.926 0 41.37 11.162 11.417 26.701 12.313 40.345 0l100.045-95.949 100.019 95.923c13.671 12.314 29.235 11.418 40.346 0 11.161-11.417 10.471-30.669 0-41.344z" />
<glyph unicode="&#xe621;" d="M396.365 193.613c-10.419 10.701-120.192 115.251-120.192 115.251-5.581 5.709-12.877 8.576-20.173 8.576-7.322 0-14.618-2.867-20.173-8.576 0 0-109.773-104.551-120.218-115.251-10.419-10.701-11.136-29.952 0-41.37 11.162-11.392 26.701-12.313 40.345 0l100.045 95.923 100.019-95.923c13.671-12.313 29.235-11.392 40.346 0 11.161 11.443 10.471 30.695 0 41.37z" />
<glyph unicode="&#xe622;" d="M219.213 370.791c10.701-10.445 115.251-120.218 115.251-120.218 5.735-5.581 8.576-12.877 8.576-20.173s-2.841-14.592-8.576-20.173c0 0-104.55-109.773-115.251-120.192-10.701-10.445-29.927-11.161-41.369 0-11.417 11.136-12.314 26.675 0 40.32l95.949 100.045-95.923 100.045c-12.314 13.67-11.417 29.209 0 40.345s30.669 10.445 41.344 0z" />
<glyph unicode="&#xe623;" d="M76.8 286.72c-31.104 0-56.32-25.216-56.32-56.32s25.216-56.32 56.32-56.32 56.32 25.216 56.32 56.32c0 31.104-25.216 56.32-56.32 56.32zM256 286.72c-31.104 0-56.32-25.216-56.32-56.32s25.216-56.32 56.32-56.32 56.294 25.216 56.294 56.32c0 31.104-25.19 56.32-56.294 56.32zM435.2 286.72c-31.104 0-56.32-25.216-56.32-56.32s25.216-56.32 56.32-56.32 56.32 25.216 56.32 56.32c0 31.104-25.216 56.32-56.32 56.32z" />
<glyph unicode="&#xe624;" d="M256 286.72c-31.104 0-56.32-25.216-56.32-56.32s25.216-56.32 56.32-56.32 56.32 25.216 56.32 56.32-25.216 56.32-56.32 56.32z" />
<glyph unicode="&#xe625;" d="M337.408 196.864c-18.381 0-33.28-20.634-33.28-46.055 0-25.447 14.899-46.080 33.28-46.080s33.28 20.634 33.28 46.080c-0.026 25.447-14.925 46.055-33.28 46.055zM453.274 316.774c3.789 9.344 3.968 62.464-16.231 113.305 0 0-46.387-5.069-116.531-53.222-14.72 4.070-39.629 6.093-64.512 6.093-24.909 0-49.792-2.048-64.537-6.093-70.118 48.154-116.48 53.222-116.48 53.222-20.198-50.841-20.045-103.961-16.23-113.305-23.757-25.805-38.272-56.781-38.272-99.097 0-183.962 152.627-186.905 191.155-186.905 8.73 0 26.087-0.026 44.39-0.051 18.304 0.026 35.661 0.051 44.339 0.051 38.553 0 191.155 2.944 191.155 186.905 0 42.317-14.49 73.293-38.246 99.098zM256.717 53.376h-1.408c-96.563 0-171.776 11.52-171.776 105.37 0 22.477 7.962 43.341 26.778 60.647 31.463 28.851 84.633 13.568 144.999 13.568 0.231 0 0.487 0 0.717 0.025 0.256 0 0.486-0.025 0.691-0.025 60.365 0 113.562 15.283 144.999-13.568 18.816-17.305 26.752-38.17 26.752-60.647 0-93.85-75.161-105.37-171.75-105.37zM174.618 196.864c-18.381 0-33.28-20.634-33.28-46.055 0-25.447 14.899-46.080 33.28-46.080s33.28 20.634 33.28 46.080c0 25.447-14.899 46.055-33.28 46.055z" />
<glyph unicode="&#xe626;" d="M484.096 336.87c-25.753-147.763-169.6-272.896-212.864-301.466-43.29-28.57-82.739 11.443-97.075 41.728-16.384 34.483-65.51 221.619-78.387 237.082-12.851 15.539-51.456-15.463-51.456-15.463l-18.713 24.986c0 0 78.387 95.36 138.035 107.264 63.232 12.621 63.13-98.919 78.336-160.845 14.72-59.93 24.601-94.234 37.427-94.234 12.877 0 37.427 33.433 64.333 84.659 26.957 51.277-1.152 96.538-53.811 64.359 21.043 128.717 219.93 159.667 194.176 11.929z" />
<glyph unicode="&#xe627;" d="M491.52 376.499c-17.357-7.706-35.968-12.877-55.526-15.232 19.968 11.955 35.303 30.899 42.496 53.453-18.663-11.059-39.347-19.123-61.337-23.45-17.639 18.791-42.752 30.515-70.553 30.515-53.376 0-96.64-43.264-96.64-96.614 0-7.577 0.845-14.951 2.509-22.016-80.307 4.019-151.526 42.496-199.168 100.966-8.346-14.259-13.133-30.873-13.133-48.589 0-33.536 17.075-63.104 43.008-80.435-15.847 0.512-30.745 4.839-43.776 12.083 0-0.41 0-0.793 0-1.203 0-46.822 33.331-85.863 77.517-94.771-8.090-2.202-16.64-3.379-25.472-3.379-6.221 0-12.263 0.589-18.176 1.715 12.288-38.4 48-66.329 90.265-67.098-33.075-25.933-74.727-41.37-120.013-41.37-7.808 0-15.488 0.461-23.040 1.357 42.752-27.418 93.542-43.418 148.147-43.418 177.741 0 274.944 147.251 274.944 274.969 0 4.173-0.077 8.346-0.281 12.493 18.893 13.619 35.251 30.643 48.231 50.022z" />
<glyph unicode="&#xe628;" d="M384 380.697h-73.113c-8.653 0-18.304-11.366-18.304-26.598v-52.787h91.418v-75.264h-91.418v-226.048h-86.323v226.023h-78.259v75.29h78.259v44.288c0 63.514 44.083 115.2 104.601 115.2h73.139v-80.103z" />
<glyph unicode="&#xe629;" d="M421.12 450.56h-330.24c-30.259 0-55.040-24.781-55.040-55.040v-330.24c0-30.285 24.781-55.014 55.015-55.014h167.015v157.875h-52.736v68.762h52.736v34.458c0 53.12 39.219 94.72 89.293 94.72h48.589v-77.671h-43.495c-11.366 0-14.695-6.528-14.695-15.539v-35.942h58.189v-68.787h-58.189v-157.901h83.533c30.285 0 55.014 24.755 55.014 55.014v330.266c0.051 30.259-24.704 55.040-54.989 55.040z" />
<glyph unicode="&#xe62a;" d="M50.944 343.322c0-38.221 12.775-65.843 37.939-82.048 20.608-13.286 44.544-15.283 56.986-15.283 3.021 0 5.427 0.128 7.117 0.231 0 0-3.942-25.677 15.104-51.097l-0.87 0.026c-32.999 0-140.647-6.912-140.647-95.411 0-90.035 98.867-94.592 118.681-94.592 1.561 0 2.458 0.026 2.458 0.026 0.231 0 1.638-0.051 4.045-0.051 12.723 0 45.619 1.587 76.186 16.461 39.629 19.226 59.75 52.711 59.75 99.456 0 45.184-30.618 72.064-52.992 91.725-13.645 11.981-25.446 22.323-25.446 32.384 0 10.24 8.601 17.946 19.507 27.699 17.613 15.769 34.253 38.221 34.253 80.665 0 37.325-4.839 62.362-34.662 78.234 3.123 1.587 14.106 2.739 19.559 3.507 16.154 2.202 39.782 4.711 39.782 17.895v2.534h-117.709c-1.178-0.026-119.040-4.403-119.040-112.358zM240.973 112.589c2.253-35.993-28.544-62.567-74.778-65.92-46.951-3.456-85.632 17.69-87.885 53.683-1.075 17.28 6.502 34.202 21.376 47.693 15.104 13.645 35.789 22.067 58.342 23.757 2.662 0.154 5.299 0.281 7.936 0.281 43.443 0 72.883-25.549 75.008-59.495zM210.227 367.975c11.546-40.627-5.888-83.098-33.664-90.931-3.2-0.896-6.502-1.357-9.831-1.357-25.472 0-50.688 25.754-60.032 61.235-5.222 19.942-4.813 37.35 1.177 54.118 5.888 16.461 16.461 27.623 29.773 31.36 3.2 0.922 6.528 1.357 9.856 1.357 30.72 0 50.483-12.749 62.72-55.782zM408.601 279.501v76.8h-48.64v-76.8h-76.8v-48.64h76.8v-76.8h48.64v76.8h76.8v48.64h-76.8z" />
<glyph unicode="&#xe62b;" d="M399.36 20.582c-19.865-9.472-37.888-16.154-53.99-19.968-16.128-3.789-33.587-5.735-52.301-5.735-21.274 0-40.064 2.739-56.448 8.166-16.333 5.453-30.259 13.209-41.831 23.219-11.546 10.112-19.559 20.787-24.013 32.128-4.48 11.341-6.707 27.776-6.707 49.305v165.223h-51.43v66.663c18.279 6.016 33.971 14.592 46.976 25.83 13.056 11.213 23.501 24.704 31.411 40.448 7.885 15.744 13.286 35.737 16.281 60.057h66.176v-119.065h110.464v-73.933h-110.464v-120.807c0-27.289 1.433-44.825 4.327-52.608 2.816-7.731 8.141-13.926 15.897-18.56 10.342-6.247 22.093-9.37 35.353-9.37 23.577 0 47.002 7.757 70.298 23.245v-74.24z" />
<glyph unicode="&#xe62c;" d="M129.946 408.32c0-27.213-20.096-49.254-53.145-49.254-31.104 0-51.2 22.041-51.2 49.255 0 27.853 20.761 49.254 52.505 49.254s51.2-21.401 51.84-49.254zM28.211 3.225v316.928h98.509v-316.928h-98.509zM185.677 219.059c0 39.527-1.305 72.576-2.611 101.095h85.555l4.557-44.083h1.945c12.954 20.762 44.723 51.2 97.869 51.2 64.793 0 113.408-43.417 113.408-136.755v-187.315h-98.509v175.642c0 40.832-14.285 68.711-49.92 68.711-27.213 0-43.392-18.79-50.534-36.941-2.611-6.477-3.251-15.539-3.251-24.627v-182.784h-98.509v215.859z" />
<glyph unicode="&#xe62d;" d="M156.391 463.309l-146.15-91.034 100.121-83.942 145.638 94.592-99.609 80.384zM344.371 76.953c-2.611 0-5.197 0.896-7.296 2.663l-81.075 67.226-81.075-67.251c-2.099-1.741-4.71-2.663-7.296-2.663-2.176 0-4.352 0.589-6.246 1.843l-60.058 39.296v-23.193l154.675-97.382 154.675 97.408v23.194l-60.058-39.296c-1.894-1.255-4.070-1.843-6.247-1.843zM501.76 372.275l-146.15 91.034-99.61-80.384 145.613-94.566 100.147 83.917zM256 197.35l90.291-74.957 144.435 94.413-89.088 71.526-145.638-90.983zM165.709 122.393l90.291 74.957-145.613 91.008-89.088-71.552 144.41-94.413z" />
<glyph unicode="&#xe62e;" d="M477.978 178.227c3.405 15.974 5.197 32.563 5.197 49.613 0 127.641-100.582 231.143-224.666 231.143-13.082 0-25.933-1.178-38.4-3.379-20.121 13.005-43.853 20.557-69.35 20.557-71.936 0-130.279-60.032-130.279-134.067 0-24.729 6.553-47.897 17.92-67.789-2.969-15.001-4.557-30.541-4.557-46.464 0-127.642 100.608-231.143 224.666-231.143 14.055 0 27.827 1.331 41.139 3.865 18.329-10.137 39.296-15.897 61.568-15.897 71.987 0 130.304 60.007 130.304 134.041 0 21.376-4.889 41.6-13.543 59.52zM373.735 117.35c-10.394-15.13-25.753-27.136-45.645-35.635-19.712-8.423-43.289-12.697-70.195-12.697-32.281 0-59.315 5.837-80.435 17.382-15.104 8.371-27.546 19.738-36.992 33.741-9.549 14.183-14.387 28.237-14.387 41.779 0 8.474 3.149 15.821 9.369 21.837 6.169 5.939 14.054 8.986 23.45 8.986 7.706 0 14.387-2.381 19.789-7.065 5.171-4.531 9.6-11.213 13.159-19.789 3.994-9.395 8.32-17.305 12.903-23.552 4.403-5.99 10.752-11.059 18.841-15.002 8.141-3.942 19.123-5.965 32.64-5.965 18.56 0 33.792 4.070 45.235 12.135 11.213 7.885 16.64 17.305 16.64 28.851 0 9.113-2.841 16.307-8.678 21.913-6.118 5.863-14.208 10.445-23.987 13.594-10.214 3.277-24.089 6.81-41.216 10.496-23.322 5.146-43.136 11.238-58.88 18.125-16.077 7.014-29.082 16.793-38.579 29.030-9.651 12.391-14.541 28.007-14.541 46.336 0 17.459 5.12 33.203 15.257 46.771 10.061 13.465 24.704 23.962 43.597 31.155 18.662 7.091 40.857 10.701 65.946 10.701 20.070 0 37.709-2.407 52.429-7.091 14.797-4.762 27.289-11.162 37.094-19.047 9.882-7.962 17.229-16.461 21.863-25.241 4.659-8.934 7.014-17.792 7.014-26.368 0-8.269-3.098-15.769-9.216-22.323-6.144-6.579-13.926-9.907-23.065-9.907-8.295 0-14.822 2.099-19.353 6.195-4.199 3.815-8.576 9.805-13.389 18.355-5.606 10.982-12.39 19.609-20.147 25.677-7.577 5.913-20.173 8.935-37.529 8.935-16.102 0-29.209-3.328-38.938-9.907-9.395-6.349-13.927-13.594-13.927-22.169 0-5.274 1.459-9.677 4.48-13.44 3.2-4.019 7.68-7.552 13.389-10.47 5.888-3.046 11.981-5.478 18.073-7.219 6.246-1.767 16.717-4.403 31.104-7.833 18.176-4.019 34.867-8.525 49.639-13.363 14.976-4.915 27.904-11.008 38.451-18.048 10.752-7.219 19.277-16.487 25.319-27.52 6.041-11.111 9.113-24.807 9.113-40.704 0.026-19.098-5.248-36.429-15.693-51.635z" />
<glyph unicode="&#xe62f;" d="M431.488 362.624c6.963-13.159 10.419-29.414 10.419-48.947 0-44.339-18.688-80.128-56.013-107.29-37.376-27.187-89.575-40.755-156.621-40.755h-15.693c-11.802 0-23.603-9.267-26.24-20.608l-18.841-80.358c-2.637-11.366-14.439-20.659-26.24-20.659h-34.355l-3.072-13.133c-2.662-11.341 4.813-20.634 16.589-20.634h55.014c11.802 0 23.629 9.267 26.215 20.634l18.867 80.384c2.662 11.289 14.439 20.582 26.24 20.582h15.693c67.046 0 119.245 13.568 156.595 40.781 37.401 27.136 56.115 62.899 56.115 107.29 0 19.533-3.456 35.789-10.419 48.921-6.938 13.056-17.050 23.706-30.233 31.821-1.408 0.845-2.56 1.178-4.019 1.971zM134.221 98.457l18.867 80.384c2.662 11.289 14.413 20.582 26.24 20.582h15.693c67.046 0 119.245 13.568 156.595 40.781 37.351 27.161 56.038 62.925 56.038 107.29 0 19.533-3.456 35.789-10.445 48.922-6.938 13.056-17.050 23.705-30.208 31.821-13.491 8.243-29.337 13.978-47.693 17.331-18.355 3.302-39.885 4.992-64.615 4.992h-114.56c-11.827 0-23.629-9.216-26.291-20.582l-77.466-331.495c-2.663-11.366 4.813-20.659 16.589-20.659h55.014c11.827 0 23.654 9.267 26.24 20.634zM179.174 290.791l16.537 70.374c2.662 11.341 14.464 20.608 26.214 20.608h18.023c20.967 0 36.889-3.533 47.539-10.547 10.675-6.963 16.026-17.689 16.026-32.256 0-21.99-8.32-38.989-24.832-50.918-16.538-11.904-39.526-17.92-69.222-17.92h-13.619c-11.827 0-19.277 9.319-16.666 20.659z" />
<glyph unicode="&#xe630;" d="M17.203 141.926l8.397 35.84-8.397 37.043c-0.23 1.101-2.329 1.945-4.915 1.945-2.611 0-4.71-0.845-4.915-1.945l-7.373-37.043 7.399-35.84c0.205-1.127 2.304-1.945 4.915-1.945 2.56 0 4.659 0.819 4.889 1.945zM69.683 122.035l7.117 55.399-7.117 85.683c-0.205 2.202-2.867 3.917-6.093 3.917-3.251 0-5.913-1.69-6.067-3.891l-6.323-85.709 6.323-55.399c0.154-2.176 2.816-3.865 6.067-3.865 3.225-0.026 5.888 1.69 6.093 3.865zM122.061 122.931l5.939 54.477-5.939 114.099c-0.153 2.663-3.328 4.787-7.194 4.787-3.891 0-7.066-2.099-7.194-4.787l-5.273-114.099 5.273-54.502c0.128-2.663 3.302-4.762 7.194-4.762 3.865 0 7.040 2.099 7.194 4.787zM174.336 123.75l4.864 53.632-4.864 114.944c-0.128 3.175-3.712 5.683-8.192 5.683-4.506 0-8.089-2.509-8.218-5.683l-4.327-114.944 4.352-53.632c0.077-3.149 3.686-5.658 8.192-5.658 4.48 0 8.064 2.457 8.192 5.658zM226.56 124.416l3.84 52.941-3.84 131.789c-0.077 3.635-4.198 6.579-9.165 6.579s-9.063-2.944-9.139-6.579l-3.456-131.738c0-0.077 3.456-52.966 3.456-52.966 0.077-3.584 4.173-6.528 9.139-6.528 4.966-0.026 9.088 2.893 9.165 6.502zM263.117 117.862c0.154 0 181.734-0.103 182.912-0.103 36.454 0 65.971 28.57 65.971 63.821s-29.517 63.821-65.971 63.821c-9.063 0-17.664-1.767-25.523-4.966-5.248 57.498-55.142 102.605-115.968 102.605-14.873 0-29.389-2.816-42.189-7.629-4.966-1.869-6.323-3.763-6.349-7.475v-202.522c0.051-3.917 3.175-7.168 7.117-7.552z" />
<glyph unicode="&#xe631;" d="M58.487-26.948l1.57 453.82-60.057 0.222 0.153 47.138 176.367-0.615-0.171-47.138-60.058 0.205-1.553-453.837-56.252 0.205zM265.541-32.222c-29.645 0.103-53.897 24.508-53.777 54.153l1.382 402.142c0.085 29.645 24.507 53.897 54.152 53.794l82.091-0.29c29.645-0.102 53.897-24.507 53.794-54.152l-1.382-402.125c-0.103-29.645-24.525-53.897-54.17-53.794l-82.091 0.273zM347.716 431.224l-78.285 0.273-1.433-417.349 78.302-0.256 1.416 417.331zM585.045-28.774l-36.557 201.575-44.083 0.171-0.717-201.455-55.483 0.188 1.741 500.975 129.229-0.461c29.645-0.103 53.897-24.507 53.794-54.152l-0.665-190.822c-0.068-21.282-12.305-39.475-29.816-48.555l40.328-207.685-57.77 0.222zM577.502 425.097l-72.209 0.256-0.717-208.298 72.209-0.256 0.717 208.298zM732.808-33.843c-29.645 0.103-53.896 24.525-53.794 54.17l1.383 402.142c0.102 29.662 24.525 53.897 54.169 53.794l82.107-0.29c29.645-0.102 53.897-24.525 53.794-54.152l-1.399-402.159c-0.102-29.645-24.508-53.879-54.169-53.777l-82.091 0.273zM815.001 429.585l-78.302 0.273-1.433-417.348 78.302-0.239 1.433 417.314z" horiz-adv-x="871" />
<glyph unicode="&#xe632;" d="M1.877 478.933h81.203v-363.707h-81.203v363.707zM380.877 478.933v-245.607l-130.065 245.607h-94.737v-363.707h74.138v261.7l137.711-261.7h87.108v363.707zM835.806 478.933h81.221v-286.021h-81.221v286.021zM1243.648 478.933h-282.505v-67.106h100.642v-218.914h81.22v218.914h100.642zM1367.227 182.315v86.511h134.195v67.089h-134.195v75.912h141.244v67.106h-222.447v-363.707h229.513v67.089zM612.455 182.315l171.264 250.385v46.233h-263.953v-67.106h157.133l-172.578-251.034v-45.568h739.328v67.089zM121.463-29.261c0-0.461-0.12-0.87-0.359-1.212-0.239-0.341-0.665-0.598-1.246-0.819-0.597-0.205-1.349-0.358-2.27-0.512-0.921-0.137-2.117-0.222-3.584-0.222-1.365 0-2.543 0.086-3.516 0.222-0.99 0.154-1.758 0.325-2.321 0.512-0.563 0.222-0.956 0.478-1.195 0.819-0.239 0.358-0.359 0.751-0.359 1.212v97.297h-0.171l-39.373-97.741c-0.171-0.392-0.409-0.751-0.734-1.041s-0.768-0.529-1.382-0.734c-0.615-0.205-1.331-0.358-2.151-0.426-0.837-0.086-1.826-0.137-2.986-0.137-1.212 0-2.253 0.069-3.106 0.188-0.87 0.103-1.587 0.273-2.151 0.461s-1.024 0.443-1.349 0.734-0.529 0.598-0.648 0.955l-37.649 97.741h-0.069v-97.297c0-0.461-0.12-0.87-0.358-1.212-0.239-0.341-0.649-0.598-1.246-0.819-0.598-0.205-1.365-0.358-2.321-0.512-0.956-0.137-2.151-0.222-3.635-0.222-1.417 0-2.611 0.086-3.55 0.222-0.955 0.154-1.707 0.325-2.27 0.512-0.563 0.222-0.956 0.478-1.161 0.819-0.205 0.341-0.307 0.734-0.307 1.212v102.741c0 2.423 0.648 4.13 1.929 5.171 1.297 1.058 2.713 1.57 4.301 1.57h9.114c1.86 0 3.515-0.188 4.915-0.512 1.399-0.358 2.628-0.904 3.686-1.656 1.058-0.751 1.928-1.707 2.628-2.85 0.717-1.144 1.314-2.491 1.843-4.045l31.949-80.896h0.426l33.229 80.64c0.648 1.741 1.349 3.209 2.117 4.421 0.751 1.195 1.587 2.168 2.492 2.885s1.912 1.229 3.021 1.553c1.109 0.325 2.389 0.478 3.857 0.478h9.558c0.871 0 1.724-0.137 2.509-0.375 0.785-0.273 1.451-0.666 2.014-1.212s1.007-1.246 1.365-2.065c0.359-0.853 0.529-1.861 0.529-3.072v-102.776zM209.561-25.387c0-1.041-0.051-1.928-0.171-2.714s-0.325-1.416-0.614-1.945c-0.29-0.512-0.614-0.887-0.99-1.11-0.375-0.222-0.802-0.358-1.246-0.358h-53.607c-1.314 0-2.577 0.443-3.755 1.349-1.178 0.887-1.775 2.457-1.775 4.694v99.618c0 2.253 0.597 3.823 1.775 4.694 1.178 0.904 2.44 1.349 3.755 1.349h53.009c0.461 0 0.87-0.12 1.246-0.358s0.683-0.598 0.905-1.11c0.222-0.512 0.41-1.161 0.563-1.945 0.137-0.768 0.205-1.758 0.205-2.885 0-1.058-0.069-1.945-0.205-2.714-0.154-0.785-0.341-1.416-0.563-1.894-0.239-0.495-0.529-0.853-0.905-1.075s-0.785-0.358-1.246-0.358h-43.69v-35.055h37.462c0.461 0 0.87-0.137 1.246-0.375 0.375-0.273 0.7-0.615 0.956-1.075s0.444-1.092 0.563-1.894c0.119-0.802 0.188-1.758 0.188-2.85 0-1.041-0.069-1.928-0.188-2.663-0.102-0.751-0.307-1.365-0.563-1.809-0.256-0.461-0.581-0.785-0.956-1.007-0.375-0.205-0.785-0.307-1.246-0.307h-37.462v-39.97h44.288c0.444 0 0.87-0.12 1.246-0.358 0.358-0.239 0.7-0.58 0.99-1.058 0.29-0.495 0.495-1.127 0.614-1.894 0.119-0.802 0.171-1.758 0.171-2.918zM313.907 25.984c0-9.659-1.246-18.125-3.721-25.327-2.474-7.236-6.075-13.209-10.837-17.971-4.745-4.728-10.582-8.295-17.476-10.649-6.912-2.373-15.138-3.55-24.695-3.55h-23.654c-1.314 0-2.577 0.443-3.755 1.349-1.178 0.887-1.775 2.457-1.775 4.694v99.618c0 2.253 0.597 3.823 1.775 4.694 1.178 0.904 2.44 1.349 3.755 1.349h25.293c9.677 0 17.851-1.263 24.525-3.772s12.271-6.093 16.776-10.786c4.522-4.694 7.936-10.36 10.274-17.050s3.515-14.2 3.515-22.596zM298.291 25.387c0 6.041-0.751 11.673-2.253 16.862-1.485 5.223-3.84 9.711-7.031 13.517-3.192 3.806-7.236 6.759-12.118 8.892-4.898 2.134-11.195 3.209-18.91 3.209h-15.121v-86.938h15.292c7.134 0 13.142 0.904 18.039 2.68 4.898 1.775 8.977 4.522 12.254 8.192 3.277 3.687 5.752 8.294 7.39 13.858 1.639 5.546 2.457 12.118 2.457 19.729zM348.808-29.261c0-0.461-0.12-0.87-0.341-1.212-0.239-0.341-0.632-0.598-1.212-0.819-0.58-0.205-1.349-0.358-2.287-0.512-0.955-0.137-2.134-0.222-3.584-0.222-1.382 0-2.56 0.086-3.55 0.222-0.973 0.154-1.758 0.325-2.321 0.512-0.58 0.222-0.99 0.478-1.212 0.819-0.239 0.358-0.358 0.751-0.358 1.212v107.213c0 0.461 0.137 0.87 0.392 1.195 0.256 0.358 0.7 0.632 1.297 0.837 0.615 0.205 1.382 0.358 2.338 0.512 0.955 0.137 2.082 0.222 3.413 0.222 1.433 0 2.628-0.086 3.584-0.222 0.955-0.154 1.724-0.325 2.287-0.512s0.973-0.478 1.212-0.837c0.222-0.341 0.341-0.734 0.341-1.195v-107.213zM459.639-26.257c0.461-1.263 0.717-2.287 0.734-3.072 0.017-0.768-0.188-1.365-0.649-1.775s-1.229-0.666-2.287-0.768c-1.058-0.12-2.491-0.188-4.267-0.188s-3.209 0.051-4.267 0.137c-1.058 0.086-1.877 0.239-2.423 0.426-0.546 0.205-0.955 0.478-1.212 0.819-0.256 0.358-0.512 0.785-0.734 1.297l-9.591 27.187h-46.455l-9.147-26.846c-0.171-0.495-0.392-0.955-0.683-1.331-0.29-0.358-0.717-0.7-1.246-0.955-0.546-0.256-1.331-0.443-2.338-0.546-1.007-0.12-2.321-0.188-3.925-0.188-1.673 0-3.038 0.086-4.096 0.222-1.058 0.154-1.809 0.426-2.236 0.837-0.426 0.392-0.632 0.99-0.615 1.775 0.034 0.768 0.273 1.792 0.734 3.055l37.462 103.765c0.239 0.632 0.529 1.144 0.904 1.553s0.921 0.734 1.639 0.973c0.717 0.222 1.639 0.375 2.765 0.461 1.11 0.086 2.543 0.137 4.267 0.137 1.843 0 3.362-0.051 4.591-0.137 1.212-0.086 2.185-0.256 2.935-0.461 0.734-0.239 1.314-0.563 1.724-1.007 0.392-0.426 0.717-0.973 0.955-1.604l37.462-103.766zM411.563 65.357h-0.086l-19.251-55.688h38.844l-19.507 55.688zM512.717-2.091c0 3.175 0.427 6.178 1.297 9.029 0.854 2.85 2.202 5.598 4.062 8.277 1.843 2.68 4.25 5.274 7.202 7.765 2.952 2.509 6.537 5.017 10.735 7.543-2.304 3.123-4.266 5.939-5.905 8.465s-2.986 4.898-4.062 7.082-1.826 4.267-2.287 6.247c-0.461 1.979-0.699 3.976-0.699 6.007 0 3.567 0.615 6.981 1.809 10.24s3.158 6.127 5.819 8.635c2.679 2.491 6.11 4.488 10.308 5.957s9.284 2.202 15.292 2.202c5.052 0 9.455-0.529 13.159-1.639 3.703-1.092 6.775-2.646 9.233-4.659s4.284-4.438 5.529-7.288 1.861-6.041 1.861-9.558c0-3.397-0.546-6.502-1.639-9.318s-2.85-5.563-5.274-8.192c-2.423-2.646-5.513-5.291-9.284-7.902-3.771-2.611-8.328-5.359-13.688-8.243 1.962-2.355 4.096-4.813 6.4-7.373 2.304-2.56 4.711-5.154 7.202-7.731s5.069-5.137 7.68-7.646c2.611-2.491 5.188-4.898 7.731-7.202 1.144 1.553 2.184 3.311 3.106 5.308 0.922 1.997 1.723 4.096 2.423 6.315 0.699 2.202 1.212 4.471 1.553 6.776 0.341 2.304 0.512 4.625 0.512 6.981v3.123c0 0.563 0.102 1.041 0.307 1.416 0.205 0.358 0.529 0.683 0.99 0.955 0.461 0.256 1.144 0.426 2.031 0.546 0.888 0.12 2.065 0.188 3.499 0.188 1.263 0 2.355-0.034 3.242-0.086 0.888-0.068 1.621-0.205 2.202-0.392s0.99-0.512 1.246-0.955 0.375-1.024 0.375-1.775v-2.168c0-3.209-0.273-6.383-0.819-9.489-0.546-3.123-1.297-6.144-2.236-9.113s-2.134-5.803-3.55-8.499-2.97-5.205-4.711-7.51c2.594-2.065 4.847-3.789 6.775-5.171 1.928-1.382 3.567-2.509 4.915-3.362 1.348-0.87 2.475-1.467 3.362-1.809s1.621-0.512 2.202-0.512 1.126 0.017 1.639 0.086 0.938-0.034 1.246-0.273c0.324-0.239 0.563-0.683 0.734-1.365 0.17-0.7 0.256-1.775 0.256-3.209s-0.034-2.577-0.086-3.447-0.154-1.519-0.307-1.945-0.393-0.785-0.734-1.058c-0.341-0.307-0.99-0.546-1.894-0.785-0.922-0.239-2.134-0.359-3.618-0.359-1.144 0-2.423 0.205-3.806 0.598-1.383 0.409-2.986 1.11-4.83 2.116-1.843 1.024-3.976 2.389-6.434 4.096-2.441 1.741-5.308 3.909-8.585 6.57-2.407-1.945-4.966-3.772-7.629-5.427-2.679-1.69-5.529-3.106-8.55-4.284-3.021-1.161-6.195-2.099-9.489-2.748-3.26-0.666-6.843-1.007-10.683-1.007-3.618 0-7.066 0.325-10.308 0.956s-6.264 1.536-9.029 2.714c-2.765 1.178-5.24 2.646-7.424 4.454-2.184 1.775-4.045 3.806-5.563 6.075s-2.697 4.813-3.533 7.646c-0.854 2.799-1.28 5.871-1.28 9.13zM528.179-0.623c0-2.986 0.512-5.717 1.519-8.192 1.007-2.474 2.491-4.625 4.438-6.434 1.962-1.792 4.403-3.209 7.338-4.216 2.936-1.024 6.332-1.519 10.189-1.519 2.355 0 4.659 0.239 6.895 0.734 2.253 0.495 4.386 1.161 6.434 1.979 2.048 0.853 3.976 1.843 5.819 3.021 1.843 1.178 3.55 2.44 5.103 3.772-3.004 2.594-5.973 5.291-8.943 8.072-2.952 2.799-5.819 5.598-8.585 8.431-2.765 2.799-5.427 5.615-7.987 8.397-2.56 2.799-4.915 5.512-7.032 8.175-2.867-1.843-5.29-3.67-7.202-5.478-1.928-1.809-3.481-3.635-4.659-5.445-1.178-1.792-2.031-3.635-2.543-5.462-0.529-1.877-0.785-3.789-0.785-5.837zM538.197 59.486c0-1.553 0.222-3.158 0.649-4.745 0.427-1.622 1.092-3.294 1.98-5.051s1.997-3.652 3.277-5.649c1.297-2.014 2.833-4.267 4.625-6.759 4.198 2.373 7.731 4.539 10.582 6.536 2.85 1.979 5.137 3.909 6.861 5.735 1.723 1.826 2.97 3.687 3.755 5.529 0.785 1.826 1.16 3.789 1.16 5.871 0 1.673-0.307 3.26-0.904 4.779-0.597 1.519-1.553 2.885-2.885 4.045-1.314 1.178-2.986 2.134-5 2.816s-4.438 1.041-7.254 1.041c-3.055 0-5.632-0.375-7.731-1.161s-3.823-1.809-5.171-3.106c-1.365-1.297-2.355-2.816-2.986-4.539-0.631-1.724-0.956-3.515-0.956-5.342zM800.29-29.261c0-0.461-0.12-0.87-0.359-1.212s-0.665-0.598-1.246-0.819c-0.597-0.205-1.348-0.358-2.27-0.512-0.922-0.137-2.116-0.222-3.601-0.222-1.365 0-2.526 0.086-3.515 0.222-0.99 0.154-1.758 0.325-2.321 0.512-0.563 0.222-0.956 0.478-1.194 0.819-0.239 0.358-0.359 0.751-0.359 1.212v97.297h-0.17l-39.373-97.741c-0.17-0.392-0.409-0.751-0.734-1.041s-0.785-0.529-1.383-0.734-1.331-0.358-2.15-0.426-1.826-0.137-2.97-0.137c-1.212 0-2.253 0.069-3.123 0.188-0.854 0.103-1.57 0.273-2.15 0.461-0.581 0.205-1.024 0.443-1.348 0.734s-0.529 0.598-0.649 0.955l-37.649 97.741h-0.086v-97.297c0-0.461-0.12-0.87-0.359-1.212-0.239-0.341-0.649-0.598-1.246-0.819-0.597-0.205-1.365-0.358-2.321-0.512-0.956-0.137-2.168-0.222-3.635-0.222-1.417 0-2.611 0.086-3.55 0.222-0.956 0.154-1.707 0.325-2.27 0.512-0.563 0.222-0.938 0.478-1.144 0.819-0.205 0.358-0.307 0.751-0.307 1.212v102.741c0 2.423 0.649 4.13 1.928 5.171 1.28 1.058 2.713 1.57 4.301 1.57h9.114c1.861 0 3.499-0.188 4.915-0.512 1.399-0.358 2.629-0.904 3.669-1.656s1.928-1.707 2.629-2.85 1.314-2.491 1.843-4.045l31.949-80.896h0.427l33.229 80.64c0.649 1.741 1.348 3.209 2.116 4.421 0.751 1.195 1.587 2.168 2.491 2.885 0.904 0.717 1.912 1.229 3.021 1.553 1.11 0.325 2.389 0.478 3.857 0.478h9.558c0.87 0 1.723-0.137 2.491-0.375 0.785-0.273 1.451-0.666 2.014-1.212 0.546-0.546 1.007-1.246 1.365-2.065 0.341-0.853 0.512-1.861 0.512-3.072v-102.776zM911.121-26.257c0.461-1.263 0.699-2.287 0.717-3.072 0.034-0.768-0.188-1.365-0.649-1.775-0.461-0.392-1.212-0.666-2.27-0.768-1.058-0.12-2.491-0.188-4.284-0.188s-3.208 0.051-4.266 0.137c-1.058 0.086-1.861 0.239-2.407 0.426-0.546 0.205-0.956 0.478-1.212 0.819-0.256 0.358-0.512 0.785-0.734 1.297l-9.591 27.187h-46.438l-9.148-26.846c-0.17-0.495-0.409-0.955-0.699-1.331-0.29-0.358-0.717-0.7-1.246-0.955-0.546-0.256-1.331-0.443-2.338-0.546-1.024-0.12-2.321-0.188-3.926-0.188-1.673 0-3.038 0.086-4.096 0.222-1.058 0.154-1.809 0.426-2.236 0.837s-0.631 0.99-0.615 1.775c0.034 0.768 0.29 1.792 0.734 3.055l37.462 103.765c0.222 0.632 0.529 1.144 0.904 1.553 0.375 0.392 0.922 0.734 1.639 0.973 0.717 0.222 1.639 0.375 2.765 0.461s2.56 0.137 4.266 0.137c1.843 0 3.362-0.051 4.591-0.137 1.212-0.086 2.168-0.256 2.936-0.461 0.734-0.239 1.314-0.563 1.723-1.007 0.393-0.426 0.717-0.973 0.956-1.604l37.462-103.766zM863.027 65.357h-0.068l-19.251-55.688h38.843l-19.524 55.688zM1001.881-29.261c0-0.461-0.086-0.87-0.256-1.212-0.17-0.341-0.546-0.632-1.126-0.87-0.581-0.222-1.383-0.392-2.423-0.495-1.041-0.12-2.423-0.188-4.147-0.188-1.485 0-2.713 0.068-3.669 0.188-0.956 0.103-1.723 0.307-2.287 0.546-0.581 0.256-1.024 0.615-1.348 1.075-0.324 0.443-0.597 1.041-0.819 1.741l-10.274 26.317c-1.212 3.003-2.475 5.752-3.755 8.243-1.297 2.491-2.833 4.659-4.625 6.469-1.775 1.809-3.891 3.226-6.298 4.233-2.423 1.024-5.325 1.519-8.721 1.519h-9.933v-47.565c0-0.461-0.12-0.87-0.375-1.212-0.256-0.341-0.665-0.598-1.212-0.819-0.546-0.205-1.297-0.358-2.236-0.512-0.956-0.137-2.134-0.222-3.567-0.222-1.433 0-2.629 0.086-3.584 0.222-0.956 0.154-1.723 0.325-2.287 0.512-0.581 0.222-0.973 0.478-1.212 0.819-0.239 0.358-0.341 0.751-0.341 1.212v103.424c0 2.253 0.597 3.823 1.775 4.693 1.178 0.904 2.441 1.349 3.755 1.349h23.757c2.816 0 5.154-0.086 7.032-0.222 1.861-0.154 3.55-0.307 5.052-0.478 4.318-0.751 8.141-1.928 11.434-3.533 3.311-1.622 6.093-3.652 8.328-6.127s3.926-5.308 5.052-8.499 1.689-6.724 1.689-10.582c0-3.738-0.495-7.082-1.502-10.053s-2.457-5.581-4.352-7.851c-1.894-2.287-4.182-4.25-6.827-5.922-2.645-1.673-5.615-3.089-8.891-4.233 1.843-0.802 3.515-1.826 5.018-3.072 1.485-1.229 2.885-2.714 4.182-4.454 1.297-1.724 2.509-3.704 3.669-5.957s2.304-4.779 3.447-7.594l10.018-24.593c0.802-2.065 1.331-3.515 1.553-4.352 0.188-0.853 0.307-1.485 0.307-1.945zM979.524 49.195c0 4.386-0.99 8.089-2.936 11.094s-5.24 5.188-9.831 6.519c-1.433 0.392-3.072 0.683-4.881 0.87-1.809 0.171-4.182 0.256-7.117 0.256h-12.527v-37.632h14.506c3.909 0 7.288 0.461 10.138 1.433 2.85 0.938 5.222 2.27 7.117 3.959 1.894 1.69 3.294 3.687 4.182 6.007 0.904 2.304 1.348 4.796 1.348 7.493zM1091.926-29.090c0-0.461-0.085-0.887-0.307-1.263-0.205-0.358-0.581-0.666-1.16-0.904-0.563-0.239-1.349-0.409-2.321-0.563-0.99-0.137-2.253-0.222-3.806-0.222-2.014 0-3.652 0.086-4.915 0.273-1.28 0.171-2.218 0.478-2.85 0.955-0.649 0.443-1.143 0.973-1.553 1.553l-41.097 55.842v-55.842c0-0.392-0.102-0.802-0.341-1.161-0.239-0.375-0.631-0.649-1.211-0.87-0.581-0.205-1.349-0.358-2.287-0.512-0.956-0.137-2.15-0.222-3.567-0.222-1.382 0-2.56 0.086-3.55 0.222-0.99 0.154-1.758 0.325-2.338 0.512-0.581 0.222-0.973 0.478-1.212 0.87-0.239 0.358-0.359 0.768-0.359 1.161v107.213c0 0.461 0.12 0.87 0.359 1.195 0.239 0.358 0.631 0.632 1.212 0.837s1.348 0.358 2.338 0.512c0.973 0.137 2.15 0.222 3.55 0.222 1.417 0 2.629-0.086 3.567-0.222 0.956-0.154 1.724-0.325 2.287-0.512s0.973-0.478 1.211-0.837c0.239-0.341 0.341-0.734 0.341-1.195v-49.63l39.543 49.63c0.359 0.512 0.751 0.955 1.211 1.297 0.461 0.341 1.024 0.615 1.689 0.819 0.666 0.205 1.467 0.358 2.424 0.461 0.956 0.12 2.168 0.188 3.669 0.188 1.485 0 2.697-0.086 3.618-0.222 0.921-0.154 1.656-0.341 2.201-0.563 0.546-0.239 0.921-0.512 1.127-0.87 0.205-0.341 0.307-0.717 0.307-1.11 0-0.751-0.188-1.502-0.563-2.253s-1.075-1.775-2.117-3.106l-37.034-44.288 39.885-52.992c0.973-1.502 1.57-2.526 1.775-3.072 0.188-0.546 0.273-0.99 0.273-1.331zM1170.073-25.387c0-1.041-0.051-1.928-0.17-2.714s-0.324-1.416-0.598-1.945c-0.29-0.512-0.631-0.887-0.99-1.11-0.376-0.222-0.802-0.358-1.263-0.358h-53.623c-1.314 0-2.577 0.443-3.755 1.349-1.178 0.887-1.775 2.457-1.775 4.694v99.618c0 2.253 0.581 3.823 1.775 4.694 1.178 0.904 2.44 1.349 3.755 1.349h53.009c0.461 0 0.87-0.12 1.246-0.358s0.682-0.598 0.905-1.11c0.222-0.512 0.409-1.161 0.563-1.945 0.137-0.768 0.205-1.758 0.205-2.885 0-1.058-0.069-1.945-0.205-2.714-0.153-0.785-0.341-1.416-0.563-1.894-0.239-0.495-0.529-0.853-0.905-1.075s-0.785-0.358-1.246-0.358h-43.69v-35.055h37.462c0.461 0 0.87-0.137 1.246-0.375 0.376-0.273 0.699-0.615 0.956-1.075s0.444-1.092 0.563-1.894c0.12-0.802 0.188-1.758 0.188-2.85 0-1.041-0.069-1.928-0.188-2.663-0.102-0.751-0.307-1.365-0.563-1.809-0.256-0.461-0.581-0.785-0.956-1.007-0.376-0.205-0.785-0.307-1.246-0.307h-37.461v-39.97h44.288c0.461 0 0.87-0.12 1.263-0.358 0.359-0.239 0.699-0.58 0.99-1.058 0.29-0.495 0.478-1.127 0.598-1.894 0.12-0.802 0.188-1.758 0.188-2.918zM1265.272 73.822c0-1.092-0.051-2.048-0.17-2.867-0.12-0.802-0.307-1.45-0.563-1.928-0.273-0.478-0.581-0.853-0.956-1.075s-0.785-0.341-1.246-0.341h-31.419v-96.87c0-0.461-0.12-0.87-0.359-1.212-0.222-0.341-0.631-0.598-1.195-0.819-0.581-0.205-1.349-0.358-2.287-0.512-0.956-0.137-2.133-0.222-3.584-0.222-1.382 0-2.56 0.086-3.533 0.222-0.99 0.154-1.758 0.325-2.338 0.512-0.581 0.222-0.99 0.478-1.211 0.819-0.222 0.358-0.341 0.751-0.341 1.212v96.87h-31.419c-0.461 0-0.888 0.103-1.263 0.341s-0.682 0.598-0.905 1.075c-0.222 0.478-0.409 1.127-0.563 1.928-0.153 0.819-0.222 1.775-0.222 2.867 0 1.075 0.069 2.048 0.222 2.885 0.137 0.837 0.341 1.519 0.563 2.031 0.239 0.512 0.529 0.887 0.905 1.11s0.785 0.358 1.263 0.358h77.688c0.461 0 0.87-0.12 1.246-0.358s0.682-0.598 0.956-1.11c0.256-0.512 0.444-1.195 0.563-2.031s0.17-1.809 0.17-2.885zM1294.745-29.261c0-0.461-0.12-0.87-0.341-1.212-0.239-0.341-0.631-0.598-1.211-0.819-0.581-0.205-1.349-0.358-2.287-0.512-0.956-0.137-2.15-0.222-3.567-0.222-1.399 0-2.56 0.086-3.55 0.222-0.99 0.154-1.758 0.325-2.338 0.512-0.581 0.222-0.973 0.478-1.211 0.819-0.239 0.358-0.359 0.751-0.359 1.212v107.213c0 0.461 0.137 0.87 0.392 1.195 0.256 0.358 0.699 0.632 1.297 0.837 0.614 0.205 1.382 0.358 2.338 0.512 0.956 0.137 2.082 0.222 3.414 0.222 1.417 0 2.629-0.086 3.567-0.222 0.956-0.154 1.724-0.325 2.287-0.512s0.973-0.478 1.211-0.837c0.222-0.341 0.341-0.734 0.341-1.195v-107.213zM1405.133-25.387c0-1.144-0.188-2.134-0.581-2.935s-0.888-1.467-1.519-1.979c-0.614-0.512-1.314-0.887-2.099-1.11s-1.536-0.358-2.321-0.358h-4.898c-1.553 0-2.901 0.154-4.062 0.461-1.16 0.325-2.27 0.904-3.311 1.741-1.041 0.837-2.082 1.962-3.123 3.397-1.041 1.45-2.133 3.277-3.311 5.529l-34.082 63.539c-1.775 3.277-3.567 6.724-5.393 10.308-1.809 3.601-3.498 7.099-5.052 10.496h-0.17c0.102-4.147 0.205-8.38 0.256-12.697s0.085-8.601 0.085-12.868v-67.413c0-0.392-0.12-0.802-0.359-1.161-0.256-0.375-0.666-0.649-1.229-0.87-0.581-0.205-1.349-0.358-2.287-0.512-0.938-0.137-2.133-0.222-3.601-0.222-1.45 0-2.646 0.086-3.601 0.222-0.938 0.154-1.689 0.325-2.218 0.512-0.546 0.222-0.938 0.478-1.178 0.87-0.239 0.358-0.359 0.768-0.359 1.161v103.082c0 2.304 0.666 3.925 1.963 4.915 1.314 0.973 2.73 1.467 4.284 1.467h7.304c1.724 0 3.175-0.154 4.318-0.426 1.16-0.307 2.201-0.768 3.123-1.433 0.921-0.649 1.809-1.587 2.679-2.748 0.853-1.178 1.758-2.663 2.714-4.454l26.197-49.033c1.621-3.003 3.175-5.922 4.677-8.772 1.502-2.85 2.936-5.649 4.335-8.414 1.399-2.765 2.765-5.478 4.13-8.175 1.366-2.663 2.714-5.359 4.045-8.072h0.085c-0.12 4.557-0.188 9.284-0.222 14.2-0.017 4.933-0.051 9.642-0.051 14.2v60.638c0 0.392 0.137 0.768 0.359 1.11 0.256 0.341 0.666 0.649 1.229 0.904 0.581 0.273 1.331 0.443 2.27 0.563 0.956 0.12 2.168 0.171 3.687 0.171 1.331 0 2.492-0.051 3.465-0.171 0.973-0.12 1.724-0.307 2.27-0.563 0.546-0.256 0.956-0.563 1.195-0.904 0.239-0.358 0.359-0.717 0.359-1.11v-103.082zM1515.674 64.998c0-1.075-0.051-2.048-0.17-2.885-0.102-0.853-0.29-1.536-0.512-2.082-0.222-0.546-0.512-0.938-0.853-1.161s-0.717-0.341-1.127-0.341c-0.699 0-1.843 0.529-3.465 1.639-1.604 1.075-3.772 2.304-6.468 3.635-2.714 1.314-5.957 2.526-9.711 3.618-3.772 1.092-8.243 1.656-13.431 1.656-6.161 0-11.69-1.127-16.572-3.379-4.898-2.236-9.045-5.342-12.441-9.318-3.397-3.959-6.007-8.687-7.816-14.149-1.809-5.478-2.714-11.401-2.714-17.784 0-7.134 0.99-13.483 2.969-18.995 1.997-5.512 4.727-10.189 8.243-13.978 3.515-3.806 7.697-6.673 12.544-8.635 4.864-1.962 10.206-2.935 16.008-2.935 3.447 0 6.946 0.409 10.496 1.246s6.843 2.082 9.899 3.755v32.546h-25.907c-0.99 0-1.724 0.495-2.201 1.467-0.495 0.99-0.734 2.509-0.734 4.591 0 1.075 0.051 2.031 0.17 2.799 0.12 0.785 0.307 1.416 0.563 1.894 0.256 0.478 0.563 0.853 0.905 1.075 0.359 0.222 0.768 0.358 1.297 0.358h35.482c0.631 0 1.263-0.137 1.895-0.358 0.631-0.239 1.211-0.58 1.724-1.041 0.512-0.461 0.921-1.092 1.211-1.894 0.29-0.819 0.444-1.741 0.444-2.765v-42.547c0-1.502-0.273-2.799-0.785-3.909-0.512-1.075-1.621-2.048-3.277-2.885-1.672-0.853-3.823-1.758-6.468-2.714-2.646-0.99-5.376-1.809-8.192-2.491-2.816-0.7-5.666-1.212-8.534-1.57-2.884-0.341-5.735-0.512-8.551-0.512-8.619 0-16.35 1.331-23.126 4.010-6.793 2.663-12.527 6.486-17.22 11.435s-8.277 10.889-10.752 17.784c-2.475 6.912-3.704 14.609-3.704 23.142 0 8.858 1.331 16.879 4.011 24.081 2.679 7.185 6.434 13.312 11.315 18.381 4.864 5.051 10.701 8.977 17.527 11.776 6.81 2.782 14.37 4.181 22.665 4.181 4.266 0 8.261-0.375 11.998-1.11 3.755-0.751 7.065-1.639 9.967-2.628 2.901-1.024 5.342-2.099 7.339-3.277 1.979-1.178 3.345-2.151 4.096-2.901 0.734-0.751 1.263-1.604 1.553-2.577 0.256-0.99 0.409-2.406 0.409-4.25z" horiz-adv-x="1516" />
<glyph unicode="&#xe634;" d="M38.315 148.787l1.024 295.834-39.151 0.137 0.102 30.737 114.961-0.392-0.103-30.737-39.134 0.137-1.024-295.817-36.676 0.103zM173.278 145.357c-19.32 0.068-35.123 15.991-35.055 35.294l0.905 262.127c0.069 19.337 15.975 35.14 35.294 35.072l53.521-0.188c19.32-0.069 35.123-15.992 35.055-35.294l-0.904-262.127c-0.068-19.337-15.992-35.14-35.311-35.072l-53.504 0.188zM226.85 447.437l-51.030 0.188-0.939-272.043 51.047-0.171 0.922 272.026zM381.543 147.61l-23.825 131.397-28.74 0.102-0.461-131.311-36.181 0.137 1.144 326.553 84.241-0.307c19.32-0.068 35.123-15.974 35.055-35.294l-0.426-124.382c-0.051-13.858-8.022-25.737-19.439-31.642l26.3-135.39-37.666 0.137zM376.627 443.46l-47.070 0.171-0.478-135.766 47.070-0.171 0.478 135.765zM477.866 144.316c-19.32 0.068-35.123 15.991-35.072 35.294l0.904 262.127c0.068 19.337 15.974 35.14 35.311 35.072l53.504-0.188c19.337-0.069 35.14-15.992 35.072-35.311l-0.904-262.127c-0.068-19.32-15.975-35.123-35.311-35.055l-53.504 0.188zM531.439 446.396l-51.046 0.188-0.938-272.043 51.046-0.154 0.938 272.009zM713.728 146.466l1.024 295.851-39.134 0.137 0.102 30.72 114.944-0.392-0.102-30.72-39.151 0.137-1.024-295.834-36.659 0.103zM906.104 145.801l0.512 151.125-55.501 0.188-0.512-151.125-36.182 0.12 1.126 326.553 36.182-0.12-0.495-145.203 55.484-0.188 0.495 145.186 36.198-0.136-1.144-326.536-36.164 0.137zM973.534 145.562l1.126 326.553 102.571-0.358-0.102-30.225-66.407 0.222-0.409-117.435 55.501-0.205-0.102-30.72-55.501 0.205-0.393-117.947 66.389-0.222-0.102-30.225-102.571 0.358zM1276.485 144.504l1.041 295.834-51.046 0.188-1.024-295.834-36.181 0.12 1.041 295.834-51.046 0.188-1.024-295.834-36.165 0.12 1.127 326.553 36.181-0.137-0.069-18.313c4.505 12.868 16.418 18.279 33.758 18.21l11.4-0.051c17.834-0.068 26.709-9.011 31.163-18.432 4.984 12.868 13.927 18.278 31.283 18.21l31.693-0.103c19.353-0.068 35.14-15.991 35.072-35.311l-1.024-291.362-36.181 0.12zM1343.727 144.299l1.127 326.536 102.588-0.358-0.102-30.225-66.424 0.222-0.392-117.435 55.484-0.205-0.102-30.72-55.484 0.188-0.409-117.93 66.407-0.222-0.102-30.225-102.588 0.375zM0 94.754h1448.892v-6.024h-1448.892v6.024zM16.52-19.9v25.276h-9.557v-25.276h-6.963v56.115c0 3.721 3.055 6.759 6.758 6.759h10.018c3.721 0 6.776-3.055 6.776-6.759v-56.115h-7.032zM16.52 37.154h-9.557v-25.959h9.557v25.959zM53.47-19.9c-3.823 0-6.861 3.055-6.861 6.759v33.604c0 3.721 3.055 6.776 6.861 6.776h9.745c3.823 0 6.776-3.072 6.776-6.776v-8.482h-6.776v9.25h-9.745v-35.209h9.745v8.892h6.776v-8.022c0-3.721-2.953-6.759-6.776-6.759l-9.745-0.034zM94.72-19.9l-0.478 3.721c-1.144-2.577-3.055-3.721-6.4-3.721h-4.198c-3.721 0-6.775 3.055-6.775 6.759v40.38h6.878v-41.233h10.12v41.233h6.861v-47.155h-6.008zM114.688-19.9c-3.823 0-6.878 3.055-6.878 6.759v6.11h6.878v-6.963h8.294v8.892l-13.363 13.738c-1.041 1.144-1.621 1.997-1.621 4.386v7.373c0 3.823 3.055 6.861 6.878 6.861h8.106c3.721 0 6.776-3.055 6.776-6.861v-6.024h-6.775v6.861h-8.106v-8.892l13.466-13.738c1.058-1.144 1.417-2.406 1.417-3.721v-8.038c0-3.721-3.055-6.759-6.775-6.759h-8.294zM139.81-19.9v41.233h-6.007v5.922h6.007v10.479h6.878v-10.479h7.356v-5.905h-7.356v-41.233l-6.878-0.017zM164.933-19.9c-3.823 0-6.878 3.055-6.878 6.759v33.502c0 3.823 3.055 6.878 6.878 6.878h9.745c3.823 0 6.775-3.072 6.775-6.878v-33.502c0-3.721-2.97-6.759-6.775-6.759h-9.745zM174.661 21.231h-9.728v-35.209h9.728v35.209zM221.457-19.9v41.13h-9.455v-41.13h-6.861v41.13h-9.455v-41.13h-6.775v47.155h6.775v-3.635c0.853 2.594 3.243 3.635 6.588 3.635h1.724c3.43 0 5.154-1.724 6.11-3.635 0.956 2.594 2.679 3.635 6.007 3.635h5.342c3.72 0 6.775-3.072 6.775-6.776v-40.363h-6.775zM275.029-19.9c-2.765 0-4.284 2.952-4.676 4.471-0.478-1.639-1.911-4.471-4.966-4.471h-6.981c-3.72 0-6.775 3.055-6.775 6.759v56.115h7.151v-56.986h8.123v56.986h6.878v-56.986h8.123v56.986h7.065v-56.115c0-3.721-2.952-6.759-6.673-6.759h-7.271zM303.121-19.9c-3.823 0-6.878 3.055-6.878 6.759v33.502c0 3.823 3.055 6.878 6.878 6.878h9.745c3.806 0 6.776-3.072 6.776-6.878v-33.502c0-3.721-2.969-6.759-6.776-6.759h-9.745zM312.866 21.231h-9.745v-35.209h9.745v35.209zM327.099-19.9v47.155h6.861v-3.635c0.87 1.826 2.68 3.635 6.212 3.635h4.199v-6.024h-10.411v-41.13h-6.861zM355.175-19.9c-3.721 0-6.776 3.055-6.776 6.759v33.604c0 3.721 3.055 6.776 6.776 6.776h4.966c2.287 0 3.823-0.751 4.779-1.809v19.849h6.861v-65.178h-16.606zM364.902 21.231h-9.642v-35.209h9.642v35.209zM379.801-34.133v61.389h16.623c3.721 0 6.776-3.072 6.776-6.878v-33.502c0-3.721-3.055-6.759-6.776-6.759h-4.010c-3.158 0-4.864 1.433-5.717 3.055v-17.289h-6.895v-0.017zM396.425 21.231h-9.745v-35.209h9.745v35.209zM410.658-19.9v47.155h6.878v-3.635c0.853 1.826 2.663 3.635 6.195 3.635h4.216v-6.024h-10.394v-41.13h-6.895zM438.733-19.9c-3.721 0-6.776 3.055-6.776 6.759v33.604c0 3.721 3.055 6.776 6.776 6.776h9.83c3.721 0 6.776-3.072 6.776-6.776v-14.131c0-3.823-3.055-6.861-6.776-6.861h-9.831v-13.466h9.745v6.878h6.878v-6.024c0-3.721-3.055-6.759-6.776-6.759h-9.848zM448.478 21.231h-9.745v-15.752h9.745v15.752zM468.906-19.9c-3.823 0-6.861 3.055-6.861 6.759v6.11h6.861v-6.963h8.312v8.892l-13.363 13.738c-1.058 1.144-1.622 1.997-1.622 4.386v7.373c0 3.823 3.055 6.861 6.861 6.861h8.123c3.721 0 6.776-3.055 6.776-6.861v-6.024h-6.776v6.861h-8.123v-8.892l13.466-13.738c1.058-1.144 1.433-2.406 1.433-3.721v-8.038c0-3.721-3.055-6.759-6.776-6.759h-8.312zM496.981-19.9c-3.823 0-6.878 3.055-6.878 6.759v6.11h6.878v-6.963h8.312v8.892l-13.363 13.738c-1.058 1.144-1.622 1.997-1.622 4.386v7.373c0 3.823 3.055 6.861 6.861 6.861h8.123c3.721 0 6.776-3.055 6.776-6.861v-6.024h-6.776v6.861h-8.123v-8.892l13.449-13.738c1.058-1.144 1.434-2.406 1.434-3.721v-8.038c0-3.721-3.055-6.759-6.776-6.759h-8.295zM537.873-19.9v41.233h-6.024v5.922h6.024v10.479h6.861v-10.479h7.356v-5.905h-7.356v-41.233l-6.861-0.017zM573.679-19.9v41.13h-9.745v-41.13h-6.861v65.178h6.861v-21.18c0.87 1.639 2.577 3.158 5.735 3.158h4.010c3.721 0 6.775-3.072 6.775-6.776v-40.363h-6.775zM594.483-19.9c-3.721 0-6.775 3.055-6.775 6.759v33.604c0 3.721 3.055 6.776 6.775 6.776h9.831c3.721 0 6.775-3.072 6.775-6.776v-14.131c0-3.823-3.055-6.861-6.775-6.861h-9.831v-13.466h9.745v6.878h6.878v-6.024c0-3.721-3.055-6.759-6.775-6.759h-9.847zM604.229 21.231h-9.745v-15.752h9.745v15.752zM650.923-19.9v41.13h-9.455v-41.13h-6.878v41.13h-9.438v-41.13h-6.775v47.155h6.775v-3.635c0.854 2.594 3.242 3.635 6.587 3.635h1.723c3.447 0 5.154-1.724 6.11-3.635 0.956 2.594 2.663 3.635 6.008 3.635h5.342c3.721 0 6.775-3.072 6.775-6.776v-40.363h-6.775zM671.744-19.9c-3.721 0-6.775 3.055-6.775 6.759v33.604c0 3.721 3.055 6.776 6.775 6.776h9.831c3.721 0 6.775-3.072 6.775-6.776v-14.131c0-3.823-3.055-6.861-6.775-6.861h-9.831v-13.466h9.728v6.878h6.878v-6.024c0-3.721-3.055-6.759-6.775-6.759h-9.831zM681.489 21.231h-9.728v-15.752h9.728v15.752zM713.95-19.9v41.233h-5.632v5.922h5.632v11.247c0 3.738 3.055 6.776 6.775 6.776h8.499v-5.905h-8.499v-12.135h7.919v-5.905h-7.919v-41.233h-6.775zM739.55-19.9c-3.823 0-6.878 3.055-6.878 6.759v33.502c0 3.823 3.055 6.878 6.878 6.878h9.745c3.806 0 6.775-3.072 6.775-6.878v-33.502c0-3.721-2.97-6.759-6.775-6.759h-9.745zM749.295 21.231h-9.745v-35.209h9.745v35.209zM763.529-19.9v47.155h6.878v-3.635c0.87 1.826 2.663 3.635 6.195 3.635h4.198v-6.024h-10.394v-41.13h-6.878zM807.458-19.9c-3.823 0-6.878 3.055-6.878 6.759v6.11h6.878v-6.963h8.294v8.892l-13.363 13.738c-1.058 1.144-1.621 1.997-1.621 4.386v7.373c0 3.823 3.055 6.861 6.878 6.861h8.106c3.721 0 6.775-3.055 6.775-6.861v-6.024h-6.775v6.861h-8.106v-8.892l13.448-13.738c1.058-1.144 1.433-2.406 1.433-3.721v-8.038c0-3.721-3.055-6.759-6.775-6.759h-8.294zM832.581-19.9v41.233h-6.024v5.922h6.024v10.479h6.878v-10.479h7.338v-5.905h-7.338v-41.233l-6.878-0.017zM857.702-19.9c-3.721 0-6.775 3.055-6.775 6.759v13.346c0 3.755 3.055 6.793 6.775 6.793h4.386c2.663 0 4.386-1.058 5.342-2.389v16.606h-9.728v-8.295h-6.775v7.543c0 3.721 3.055 6.776 6.775 6.776h9.831c3.737 0 6.775-3.072 6.775-6.776v-40.363h-16.606zM867.431 1.075h-9.643v-15.087h9.643v15.087zM881.954-19.9v47.155h6.878v-3.635c0.854 1.826 2.679 3.635 6.195 3.635h4.198v-6.024h-10.394v-41.13h-6.878zM908.493-19.9v41.233h-6.008v5.922h6.024v10.479h6.878v-10.479h7.338v-5.905h-7.338v-41.233l-6.895-0.017zM927.232 33.621v8.209h7.817v-8.209h-7.817zM927.71-19.9v47.155h6.878v-47.155h-6.878zM959.573-19.9v41.13h-10.206v-41.13h-6.775v47.155h6.759v-3.158c0.956 1.639 2.663 3.158 5.819 3.158h4.471c3.737 0 6.793-3.072 6.793-6.776v-40.363h-6.861zM980.497-34.133c-3.806 0-6.759 2.969-6.759 6.776v3.738h6.759v-4.608h9.745v12.613c-0.973-1.639-2.577-3.072-5.819-3.072h-3.926c-3.806 0-6.759 3.072-6.759 6.776v32.375c0 3.721 2.97 6.776 6.759 6.776h16.623v-54.596c0-3.823-3.055-6.776-6.878-6.776h-9.745zM990.242 21.231h-9.745v-33.894h9.745v33.894zM1027.584-34.133c-3.823 0-6.861 3.055-6.861 6.878v4.591h6.861v-5.427h9.267v12.493h-9.267c-3.823 0-6.861 3.072-6.861 6.776v36.062h6.963v-36.95h9.165v36.95h6.878v-54.494c0-3.84-2.969-6.878-6.775-6.878h-9.37zM1058.048-19.9c-3.823 0-6.861 3.055-6.861 6.759v33.502c0 3.823 3.038 6.878 6.861 6.878h9.728c3.823 0 6.775-3.072 6.775-6.878v-33.502c0-3.721-2.953-6.759-6.775-6.759h-9.728zM1067.776 21.231h-9.728v-35.209h9.728v35.209zM1099.69-19.9l-0.478 3.721c-1.127-2.577-3.038-3.721-6.383-3.721h-4.198c-3.737 0-6.775 3.055-6.775 6.759v40.38h6.878v-41.233h10.12v41.233h6.878v-47.155h-6.042zM1113.736-19.9v47.155h6.878v-3.635c0.888 1.826 2.679 3.635 6.195 3.635h4.216v-6.024h-10.41v-41.13h-6.878zM1174.835-19.9c-2.85 0-4.574 3.14-4.762 4.471-0.376-1.331-1.911-4.471-4.966-4.471h-6.775c-3.737 0-6.775 3.055-6.775 6.759v40.38h6.963v-41.233h8.123v41.233h6.878v-41.233h8.312v41.233h6.775v-40.38c0-3.721-3.072-6.759-6.775-6.759h-6.997zM1202.654-19.9c-3.737 0-6.775 3.055-6.775 6.759v33.604c0 3.721 3.055 6.776 6.775 6.776h9.831c3.72 0 6.775-3.072 6.775-6.776v-14.131c0-3.823-3.055-6.861-6.775-6.861h-9.831v-13.466h9.728v6.878h6.861v-6.024c0-3.721-3.055-6.759-6.775-6.759h-9.813zM1212.382 21.231h-9.728v-15.752h9.728v15.752zM1226.53-19.9v65.178h6.775v-21.18c0.956 1.639 2.662 3.158 5.82 3.158h3.909c3.823 0 6.895-3.072 6.895-6.776v-33.604c0-3.721-3.072-6.759-6.895-6.759h-16.504zM1243.034 21.231h-9.728v-35.209h9.728v35.209zM1273.122-34.133v61.389h16.623c3.72 0 6.793-3.072 6.793-6.878v-33.502c0-3.721-3.072-6.759-6.793-6.759h-3.994c-3.158 0-4.881 1.433-5.735 3.055v-17.289h-6.895v-0.017zM1289.745 21.231h-9.745v-35.209h9.745v35.209zM1303.978-19.9v47.155h6.878v-3.635c0.853 1.826 2.662 3.635 6.195 3.635h4.198v-6.024h-10.393v-41.13h-6.878zM1332.156-19.9c-3.823 0-6.878 3.055-6.878 6.759v33.502c0 3.823 3.055 6.878 6.878 6.878h9.728c3.823 0 6.775-3.072 6.775-6.878v-33.502c0-3.721-2.953-6.759-6.775-6.759h-9.728zM1341.884 21.231h-9.728v-35.209h9.728v35.209zM1350.4-34.133v5.922h6.571v55.466h6.775v-54.596c0-3.823-3.055-6.776-6.775-6.776h-6.571zM1356.22 33.621v8.209h7.833v-8.209h-7.833zM1377.997-19.9c-3.72 0-6.775 3.055-6.775 6.759v33.604c0 3.721 3.055 6.776 6.775 6.776h9.831c3.72 0 6.775-3.072 6.775-6.776v-14.131c0-3.823-3.055-6.861-6.775-6.861h-9.831v-13.466h9.728v6.878h6.861v-6.024c0-3.721-3.055-6.759-6.775-6.759h-9.813zM1387.725 21.231h-9.728v-15.752h9.728v15.752zM1408.17-19.9c-3.806 0-6.878 3.055-6.878 6.759v33.604c0 3.721 3.072 6.776 6.878 6.776h9.745c3.806 0 6.775-3.072 6.775-6.776v-8.482h-6.775v9.25h-9.745v-35.209h9.745v8.892h6.775v-8.022c0-3.721-2.969-6.759-6.775-6.759l-9.745-0.034zM1434.726-19.9v41.233h-6.007v5.922h6.007v10.479h6.895v-10.479h7.322v-5.905h-7.322v-41.233l-6.895-0.017z" horiz-adv-x="1449" />
<glyph unicode="&#xf120;" d="M0 477.867h114.347v-512h-114.347v512zM533.504 477.867v-345.6l-183.125 345.6h-133.291v-512h104.277v368.298l194.048-368.298h122.538v512zM1173.845 477.867h114.347v-402.603h-114.347v402.603zM1748.139 477.867h-397.653v-94.549h141.653v-308.053h114.347v308.053h141.653zM1922.048 60.416v121.685h188.928v94.379h-188.928v106.837h198.827v94.549h-313.173v-512h323.072v94.549zM859.477 60.416l241.152 352.256v65.195h-371.542v-94.549h221.184l-242.859-353.28v-64.171h1040.726v94.55z" horiz-adv-x="2131" />
</font>
</defs>
</svg>
