<?xml version="1.0" encoding="utf-8"?>
<!-- Generator: Adobe Illustrator 16.0.0, SVG Export Plug-In . SVG Version: 6.00 Build 0)  -->
<!DOCTYPE svg PUBLIC "-//W3C//DTD SVG 1.1//EN" "http://www.w3.org/Graphics/SVG/1.1/DTD/svg11.dtd">
<svg version="1.1" id="Layer_1" xmlns="http://www.w3.org/2000/svg" xmlns:xlink="http://www.w3.org/1999/xlink" x="0px" y="0px"
	 width="12.485px" height="3px" viewBox="0 0 12.485 3" enable-background="new 0 0 12.485 3" xml:space="preserve">
<rect fill="#FFFFFF" width="0.67" height="3"/>
<polygon fill="#FFFFFF" points="3.126,0 3.126,2.025 2.053,0 1.272,0 1.272,3 1.883,3 1.883,0.842 3.02,3 3.126,3 3.738,3 3.738,0 
	"/>
<rect x="6.878" fill="#FFFFFF" width="0.67" height="2.359"/>
<polygon fill="#FFFFFF" points="10.243,0 9.413,0 8.743,0 7.913,0 7.913,0.554 8.743,0.554 8.743,2.359 9.413,2.359 9.413,0.554 
	10.243,0.554 "/>
<polygon fill="#FFFFFF" points="11.262,2.446 11.262,1.733 12.369,1.733 12.369,1.18 11.262,1.18 11.262,0.554 12.427,0.554 
	12.427,0 10.592,0 10.592,0.276 10.592,0.554 10.592,1.18 10.592,1.733 10.592,2.446 10.592,2.636 10.592,3 12.485,3 12.485,2.446 
	"/>
<polygon fill="#CE2922" points="5.036,2.446 6.449,0.382 6.449,0 5.568,0 4.272,0 4.272,0.554 5.568,0.554 4.145,2.624 4.145,3 
	5.036,3 10.243,3 10.243,2.446 "/>
</svg>
