<?xml version="1.0" encoding="utf-8"?>
<!-- Generator: Adobe Illustrator 16.0.0, SVG Export Plug-In . SVG Version: 6.00 Build 0)  -->
<!DOCTYPE svg PUBLIC "-//W3C//DTD SVG 1.1//EN" "http://www.w3.org/Graphics/SVG/1.1/DTD/svg11.dtd">
<svg version="1.1" id="Layer_1" xmlns="http://www.w3.org/2000/svg" xmlns:xlink="http://www.w3.org/1999/xlink" x="0px" y="0px"
	 width="251.5px" height="95px" viewBox="0 0 251.5 95" enable-background="new 0 0 251.5 95" xml:space="preserve">
<rect x="-0.5" fill="#DF4931" width="252" height="95"/>
<g>
	<g>
		<path fill="#FFFFFF" d="M11.874,60.011l0.17-49.206l-6.512-0.023l0.018-5.11l19.122,0.066l-0.018,5.11l-6.511-0.022l-0.17,49.206
			L11.874,60.011z"/>
		<path fill="#FFFFFF" d="M34.323,60.582c-3.215-0.011-5.843-2.657-5.832-5.871l0.15-43.602c0.011-3.215,2.658-5.843,5.872-5.832
			l8.901,0.031c3.215,0.011,5.843,2.658,5.832,5.872l-0.15,43.601c-0.011,3.215-2.658,5.844-5.873,5.832L34.323,60.582z
			 M43.233,10.335l-8.489-0.029l-0.156,45.25l8.489,0.029L43.233,10.335z"/>
		<path fill="#FFFFFF" d="M68.965,60.208l-3.963-21.856l-4.781-0.017l-0.076,21.842l-6.017-0.021L54.317,5.84l14.011,0.049
			c3.214,0.011,5.843,2.657,5.832,5.872l-0.071,20.688c-0.008,2.308-1.334,4.281-3.233,5.264l4.373,22.517L68.965,60.208z
			 M68.146,10.998l-7.83-0.027l-0.078,22.583l7.83,0.027L68.146,10.998z"/>
		<path fill="#FFFFFF" d="M84.985,60.758c-3.214-0.011-5.843-2.658-5.832-5.872l0.15-43.602c0.011-3.215,2.658-5.843,5.873-5.832
			l8.901,0.031c3.215,0.011,5.843,2.658,5.832,5.872l-0.15,43.602c-0.012,3.215-2.658,5.843-5.873,5.832L84.985,60.758z
			 M93.896,10.511l-8.49-0.03L85.25,55.731l8.489,0.028L93.896,10.511z"/>
		<path fill="#FFFFFF" d="M124.218,60.399l0.17-49.207l-6.511-0.022l0.018-5.11l19.121,0.066l-0.017,5.11l-6.512-0.022l-0.17,49.206
			L124.218,60.399z"/>
		<path fill="#FFFFFF" d="M156.214,60.509l0.087-25.139l-9.232-0.031l-0.086,25.139l-6.017-0.021l0.188-54.317l6.017,0.021
			l-0.083,24.15l9.231,0.032l0.084-24.149l6.018,0.021L162.23,60.53L156.214,60.509z"/>
		<path fill="#FFFFFF" d="M167.431,60.549l0.188-54.317l17.062,0.059l-0.018,5.028l-11.044-0.038l-0.068,19.534l9.231,0.032
			l-0.018,5.11l-9.231-0.032l-0.067,19.617l11.044,0.038l-0.017,5.027L167.431,60.549z"/>
		<path fill="#FFFFFF" d="M217.822,60.723l0.171-49.207l-8.489-0.029l-0.171,49.206l-6.018-0.021l0.171-49.206l-8.489-0.029
			l-0.171,49.206l-6.016-0.021l0.188-54.316l6.017,0.021l-0.011,3.049c0.75-2.141,2.731-3.041,5.615-3.031l1.896,0.007
			c2.968,0.011,4.446,1.5,5.183,3.068c0.831-2.14,2.318-3.042,5.203-3.032l5.274,0.019c3.216,0.011,5.843,2.658,5.833,5.872
			l-0.168,48.465L217.822,60.723z"/>
		<path fill="#FFFFFF" d="M229.006,60.761l0.188-54.316l17.061,0.059l-0.017,5.028l-11.046-0.038l-0.067,19.534l9.231,0.032
			l-0.017,5.11l-9.232-0.031l-0.068,19.616l11.045,0.038l-0.017,5.028L229.006,60.761z"/>
	</g>
	<g>
		<path fill="#FFFFFF" d="M8.313,88.707v-4.26H6.705v4.26H5.532v-9.452c0-0.626,0.515-1.141,1.141-1.141h1.688
			c0.627,0,1.142,0.515,1.142,1.141v9.452H8.313z M8.313,79.096H6.705v4.372h1.608V79.096z"/>
		<path fill="#FFFFFF" d="M13.472,88.707V77.729h1.142v3.568c0.161-0.273,0.45-0.53,0.98-0.53h0.659
			c0.643,0,1.157,0.515,1.157,1.142v5.657c0,0.627-0.515,1.142-1.157,1.142H13.472z M16.253,81.779h-1.639v5.932h1.639V81.779z"/>
		<path fill="#FFFFFF" d="M18.664,88.707V77.729h1.158v10.979H18.664z"/>
		<path fill="#FFFFFF" d="M22.2,88.707c-0.626,0-1.141-0.515-1.141-1.142v-2.25c0-0.627,0.515-1.142,1.141-1.142h0.739
			c0.45,0,0.739,0.177,0.9,0.402v-2.797H22.2v1.398h-1.141v-1.27c0-0.627,0.515-1.142,1.141-1.142h1.656
			c0.626,0,1.141,0.515,1.141,1.142v6.799H22.2z M23.839,85.171h-1.623v2.54h1.623V85.171z"/>
		<path fill="#FFFFFF" d="M29.144,88.707v-6.928h-1.72v6.928h-1.141v-7.94h1.141v0.53c0.161-0.273,0.45-0.53,0.98-0.53h0.755
			c0.627,0,1.142,0.515,1.142,1.142v6.799H29.144z"/>
		<path fill="#FFFFFF" d="M34.448,88.707l-0.354-3.697H32.76v3.697h-1.141V77.729h1.141v6.317h0.402l1.382-3.279h1.141l-1.415,3.295
			c0.563,0.064,0.884,0.45,0.964,1.205l0.354,3.44H34.448z"/>
		<path fill="#FFFFFF" d="M43.175,88.707c-0.466,0-0.723-0.498-0.788-0.756c-0.08,0.273-0.321,0.756-0.836,0.756h-1.173
			c-0.626,0-1.141-0.515-1.141-1.142v-9.451h1.205v9.597h1.367v-9.597h1.157v9.597h1.366v-9.597h1.189v9.451
			c0,0.627-0.499,1.142-1.125,1.142H43.175z"/>
		<path fill="#FFFFFF" d="M47.901,88.707c-0.643,0-1.157-0.515-1.157-1.142v-5.642c0-0.643,0.515-1.157,1.157-1.157h1.639
			c0.643,0,1.141,0.515,1.141,1.157v5.642c0,0.627-0.499,1.142-1.141,1.142H47.901z M49.541,81.779h-1.639v5.932h1.639V81.779z"/>
		<path fill="#FFFFFF" d="M51.936,88.707v-7.94h1.157v0.611c0.145-0.306,0.45-0.611,1.045-0.611h0.707v1.013h-1.752v6.928H51.936z"
			/>
		<path fill="#FFFFFF" d="M56.661,88.707c-0.626,0-1.141-0.515-1.141-1.142v-5.657c0-0.627,0.515-1.142,1.141-1.142h0.836
			c0.386,0,0.643,0.129,0.804,0.306v-3.344h1.158v10.979H56.661z M58.3,81.779h-1.624v5.932H58.3V81.779z"/>
		<path fill="#FFFFFF" d="M60.808,91.102V80.767h2.797c0.626,0,1.141,0.515,1.141,1.157v5.642c0,0.627-0.514,1.142-1.141,1.142
			H62.93c-0.53,0-0.82-0.241-0.964-0.515v2.909H60.808z M63.605,81.779h-1.64v5.932h1.64V81.779z"/>
		<path fill="#FFFFFF" d="M66,88.707v-7.94h1.158v0.611c0.144-0.306,0.449-0.611,1.044-0.611h0.708v1.013h-1.751v6.928H66z"/>
		<path fill="#FFFFFF" d="M70.725,88.707c-0.627,0-1.141-0.515-1.141-1.142v-5.657c0-0.627,0.514-1.142,1.141-1.142h1.656
			c0.626,0,1.141,0.515,1.141,1.142v2.379c0,0.643-0.514,1.157-1.141,1.157h-1.656v2.267h1.64v-1.157h1.157v1.012
			c0,0.627-0.514,1.142-1.141,1.142H70.725z M72.365,81.779h-1.64v2.652h1.64V81.779z"/>
		<path fill="#FFFFFF" d="M75.804,88.707c-0.643,0-1.157-0.515-1.157-1.142v-1.028h1.157v1.174h1.398v-1.496l-2.25-2.313
			c-0.176-0.192-0.273-0.338-0.273-0.74v-1.237c0-0.643,0.514-1.157,1.157-1.157h1.366c0.627,0,1.141,0.515,1.141,1.157v1.013
			h-1.141v-1.157h-1.366v1.495l2.266,2.314c0.177,0.192,0.241,0.401,0.241,0.626v1.351c0,0.627-0.514,1.142-1.141,1.142H75.804z"/>
		<path fill="#FFFFFF" d="M80.53,88.707c-0.643,0-1.158-0.515-1.158-1.142v-1.028h1.158v1.174h1.398v-1.496l-2.25-2.313
			c-0.177-0.192-0.273-0.338-0.273-0.74v-1.237c0-0.643,0.515-1.157,1.157-1.157h1.366c0.627,0,1.141,0.515,1.141,1.157v1.013
			h-1.141v-1.157h-1.366v1.495l2.266,2.314c0.177,0.192,0.241,0.401,0.241,0.626v1.351c0,0.627-0.514,1.142-1.141,1.142H80.53z"/>
		<path fill="#FFFFFF" d="M87.747,88.707v-9.596h-1.27v-0.997h3.729v0.997h-1.27v9.596H87.747z"/>
		<path fill="#FFFFFF" d="M93.918,88.707v-6.928h-1.64v6.928h-1.157V77.729h1.157v3.568c0.145-0.273,0.434-0.53,0.964-0.53h0.675
			c0.627,0,1.141,0.515,1.141,1.142v6.799H93.918z"/>
		<path fill="#FFFFFF" d="M97.422,88.707c-0.626,0-1.141-0.515-1.141-1.142v-5.657c0-0.627,0.515-1.142,1.141-1.142h1.655
			c0.627,0,1.141,0.515,1.141,1.142v2.379c0,0.643-0.514,1.157-1.141,1.157h-1.655v2.267h1.64v-1.157h1.157v1.012
			c0,0.627-0.514,1.142-1.141,1.142H97.422z M99.062,81.779h-1.64v2.652h1.64V81.779z"/>
		<path fill="#FFFFFF" d="M106.922,88.707v-6.928h-1.592v6.928h-1.157v-6.928h-1.591v6.928h-1.142v-7.94h1.142v0.611
			c0.145-0.435,0.546-0.611,1.109-0.611h0.29c0.579,0,0.868,0.29,1.028,0.611c0.161-0.435,0.45-0.611,1.013-0.611h0.9
			c0.626,0,1.141,0.515,1.141,1.142v6.799H106.922z"/>
		<path fill="#FFFFFF" d="M110.425,88.707c-0.626,0-1.141-0.515-1.141-1.142v-5.657c0-0.627,0.515-1.142,1.141-1.142h1.656
			c0.627,0,1.141,0.515,1.141,1.142v2.379c0,0.643-0.514,1.157-1.141,1.157h-1.656v2.267h1.64v-1.157h1.157v1.012
			c0,0.627-0.514,1.142-1.141,1.142H110.425z M112.065,81.779h-1.64v2.652h1.64V81.779z"/>
		<path fill="#FFFFFF" d="M117.53,88.707v-6.943h-0.948v-0.997h0.948V78.87c0-0.627,0.514-1.142,1.142-1.142h1.43v0.997h-1.43v2.041
			h1.334v0.997h-1.334v6.943H117.53z"/>
		<path fill="#FFFFFF" d="M121.838,88.707c-0.643,0-1.158-0.515-1.158-1.142v-5.642c0-0.643,0.515-1.157,1.158-1.157h1.639
			c0.643,0,1.141,0.515,1.141,1.157v5.642c0,0.627-0.498,1.142-1.141,1.142H121.838z M123.477,81.779h-1.639v5.932h1.639V81.779z"/>
		<path fill="#FFFFFF" d="M125.872,88.707v-7.94h1.157v0.611c0.145-0.306,0.45-0.611,1.045-0.611h0.707v1.013h-1.752v6.928H125.872z
			"/>
		<path fill="#FFFFFF" d="M133.265,88.707c-0.643,0-1.157-0.515-1.157-1.142v-1.028h1.157v1.174h1.398v-1.496l-2.25-2.313
			c-0.177-0.192-0.273-0.338-0.273-0.74v-1.237c0-0.643,0.515-1.157,1.158-1.157h1.366c0.626,0,1.141,0.515,1.141,1.157v1.013
			h-1.141v-1.157h-1.366v1.495l2.267,2.314c0.176,0.192,0.24,0.401,0.24,0.626v1.351c0,0.627-0.514,1.142-1.141,1.142H133.265z"/>
		<path fill="#FFFFFF" d="M138.023,88.707c-0.627,0-1.141-0.515-1.141-1.142v-2.25c0-0.627,0.514-1.142,1.141-1.142h0.74
			c0.45,0,0.739,0.177,0.899,0.402v-2.797h-1.639v1.398h-1.141v-1.27c0-0.627,0.514-1.142,1.141-1.142h1.655
			c0.627,0,1.142,0.515,1.142,1.142v6.799H138.023z M139.662,85.171h-1.623v2.54h1.623V85.171z"/>
		<path fill="#FFFFFF" d="M142.604,88.707v-6.943h-1.012v-0.997h1.012v-1.768h1.157v1.768h1.237v0.997h-1.237v6.943H142.604z"/>
		<path fill="#FFFFFF" d="M146.83,88.707c-0.626,0-1.141-0.515-1.141-1.142v-2.25c0-0.627,0.515-1.142,1.141-1.142h0.74
			c0.45,0,0.739,0.177,0.9,0.402v-2.797h-1.641v1.398h-1.141v-1.27c0-0.627,0.515-1.142,1.141-1.142h1.656
			c0.626,0,1.141,0.515,1.141,1.142v6.799H146.83z M148.471,85.171h-1.623v2.54h1.623V85.171z"/>
		<path fill="#FFFFFF" d="M150.914,88.707v-7.94h1.156v0.611c0.145-0.306,0.45-0.611,1.045-0.611h0.708v1.013h-1.753v6.928H150.914z
			"/>
		<path fill="#FFFFFF" d="M155.382,88.707v-6.943h-1.013v-0.997h1.013v-1.768h1.157v1.768h1.237v0.997h-1.237v6.943H155.382z"/>
		<path fill="#FFFFFF" d="M158.532,79.689v-1.382h1.317v1.382H158.532z M158.612,88.707v-7.94h1.157v7.94H158.612z"/>
		<path fill="#FFFFFF" d="M163.98,88.707v-6.928h-1.719v6.928h-1.142v-7.94h1.142v0.53c0.159-0.273,0.449-0.53,0.979-0.53h0.755
			c0.628,0,1.141,0.515,1.141,1.142v6.799H163.98z"/>
		<path fill="#FFFFFF" d="M167.5,91.102c-0.643,0-1.141-0.498-1.141-1.142v-0.626h1.141v0.771h1.64v-2.122
			c-0.16,0.273-0.434,0.515-0.98,0.515H167.5c-0.643,0-1.141-0.515-1.141-1.142v-5.448c0-0.627,0.498-1.142,1.141-1.142h2.797v9.193
			c0,0.644-0.514,1.142-1.157,1.142H167.5z M169.14,81.779h-1.64v5.706h1.64V81.779z"/>
		<path fill="#FFFFFF" d="M175.425,91.102c-0.644,0-1.157-0.514-1.157-1.157v-0.771h1.157v0.917h1.559v-2.106h-1.559
			c-0.644,0-1.157-0.514-1.157-1.142v-6.075h1.174v6.221h1.542v-6.221h1.157v9.178c0,0.644-0.498,1.157-1.141,1.157H175.425z"/>
		<path fill="#FFFFFF" d="M180.552,88.707c-0.642,0-1.157-0.515-1.157-1.142v-5.642c0-0.643,0.516-1.157,1.157-1.157h1.64
			c0.644,0,1.141,0.515,1.141,1.157v5.642c0,0.627-0.497,1.142-1.141,1.142H180.552z M182.191,81.779h-1.64v5.932h1.64V81.779z"/>
		<path fill="#FFFFFF" d="M187.562,88.707l-0.082-0.628c-0.192,0.435-0.515,0.628-1.076,0.628h-0.708
			c-0.627,0-1.141-0.515-1.141-1.142v-6.799h1.156v6.944h1.705v-6.944h1.157v7.94H187.562z"/>
		<path fill="#FFFFFF" d="M189.923,88.707v-7.94h1.158v0.611c0.144-0.306,0.45-0.611,1.044-0.611h0.707v1.013h-1.751v6.928H189.923z
			"/>
		<path fill="#FFFFFF" d="M200.226,88.707c-0.466,0-0.724-0.498-0.787-0.756c-0.08,0.273-0.321,0.756-0.836,0.756h-1.173
			c-0.628,0-1.142-0.515-1.142-1.142v-9.451h1.205v9.597h1.367v-9.597h1.157v9.597h1.365v-9.597h1.189v9.451
			c0,0.627-0.498,1.142-1.125,1.142H200.226z"/>
		<path fill="#FFFFFF" d="M204.935,88.707c-0.626,0-1.141-0.515-1.141-1.142v-5.657c0-0.627,0.515-1.142,1.141-1.142h1.655
			c0.628,0,1.142,0.515,1.142,1.142v2.379c0,0.643-0.514,1.157-1.142,1.157h-1.655v2.267h1.639v-1.157h1.158v1.012
			c0,0.627-0.514,1.142-1.142,1.142H204.935z M206.573,81.779h-1.639v2.652h1.639V81.779z"/>
		<path fill="#FFFFFF" d="M208.953,88.707V77.729h1.141v3.568c0.161-0.273,0.451-0.53,0.98-0.53h0.659
			c0.644,0,1.158,0.515,1.158,1.142v5.657c0,0.627-0.515,1.142-1.158,1.142H208.953z M211.733,81.779h-1.64v5.932h1.64V81.779z"/>
		<path fill="#FFFFFF" d="M216.797,88.707V78.114h2.652c0.626,0,1.141,0.515,1.141,1.141v4.936c0,0.626-0.515,1.142-1.141,1.142
			h-1.479v3.375H216.797z M219.417,79.111h-1.447v5.19h1.447V79.111z"/>
		<path fill="#FFFFFF" d="M221.828,88.707v-7.94h1.157v0.611c0.144-0.306,0.45-0.611,1.045-0.611h0.707v1.013h-1.752v6.928H221.828z
			"/>
		<path fill="#FFFFFF" d="M226.569,88.707c-0.643,0-1.156-0.515-1.156-1.142v-5.642c0-0.643,0.514-1.157,1.156-1.157h1.64
			c0.644,0,1.141,0.515,1.141,1.157v5.642c0,0.627-0.497,1.142-1.141,1.142H226.569z M228.209,81.779h-1.64v5.932h1.64V81.779z"/>
		<path fill="#FFFFFF" d="M229.64,91.102v-0.996h1.108v-9.339h1.142v9.193c0,0.644-0.515,1.142-1.142,1.142H229.64z M230.62,79.689
			v-1.382h1.317v1.382H230.62z"/>
		<path fill="#FFFFFF" d="M234.284,88.707c-0.626,0-1.142-0.515-1.142-1.142v-5.657c0-0.627,0.516-1.142,1.142-1.142h1.655
			c0.627,0,1.142,0.515,1.142,1.142v2.379c0,0.643-0.515,1.157-1.142,1.157h-1.655v2.267h1.64v-1.157h1.157v1.012
			c0,0.627-0.515,1.142-1.142,1.142H234.284z M235.924,81.779h-1.64v2.652h1.64V81.779z"/>
		<path fill="#FFFFFF" d="M239.364,88.707c-0.644,0-1.158-0.515-1.158-1.142v-5.657c0-0.627,0.515-1.142,1.158-1.142h1.64
			c0.642,0,1.141,0.515,1.141,1.142v1.431h-1.141v-1.56h-1.64v5.932h1.64v-1.496h1.141v1.351c0,0.627-0.499,1.142-1.141,1.142
			H239.364z"/>
		<path fill="#FFFFFF" d="M243.832,88.707v-6.943h-1.014v-0.997h1.014v-1.768h1.157v1.768h1.237v0.997h-1.237v6.943H243.832z"/>
	</g>
	<g>
		<rect x="5.5" y="69" fill="#FFFFFF" width="241" height="1"/>
	</g>
</g>
</svg>
