<?xml version="1.0" encoding="utf-8"?>
<!-- Generator: Adobe Illustrator 16.0.0, SVG Export Plug-In . SVG Version: 6.00 Build 0)  -->
<!DOCTYPE svg PUBLIC "-//W3C//DTD SVG 1.1//EN" "http://www.w3.org/Graphics/SVG/1.1/DTD/svg11.dtd">
<svg version="1.1" id="Layer_1" xmlns="http://www.w3.org/2000/svg" xmlns:xlink="http://www.w3.org/1999/xlink" x="0px" y="0px"
	 width="251.5px" height="95px" viewBox="0 0 251.5 95" enable-background="new 0 0 251.5 95" xml:space="preserve">
<rect x="-0.5" fill="#DF4931" width="252" height="95"/>
<g>
	<path fill="#FFFFFF" d="M11.874,60.011l0.17-49.206l-6.512-0.023l0.018-5.11l19.122,0.066l-0.018,5.11l-6.511-0.022l-0.17,49.206
		L11.874,60.011z"/>
	<path fill="#FFFFFF" d="M34.323,60.582c-3.215-0.012-5.843-2.657-5.832-5.871l0.15-43.602c0.011-3.215,2.658-5.843,5.872-5.832
		l8.901,0.031c3.215,0.011,5.843,2.658,5.832,5.872l-0.15,43.601c-0.011,3.215-2.658,5.844-5.873,5.832L34.323,60.582z
		 M43.233,10.335l-8.489-0.029l-0.156,45.25l8.489,0.028L43.233,10.335z"/>
	<path fill="#FFFFFF" d="M68.965,60.208l-3.963-21.856l-4.781-0.017l-0.076,21.842l-6.017-0.021L54.317,5.84l14.011,0.049
		c3.214,0.011,5.843,2.657,5.832,5.872l-0.071,20.688c-0.008,2.308-1.334,4.281-3.233,5.264l4.373,22.518L68.965,60.208z
		 M68.146,10.998l-7.83-0.027l-0.078,22.583l7.83,0.027L68.146,10.998z"/>
	<path fill="#FFFFFF" d="M84.985,60.758c-3.214-0.011-5.843-2.658-5.832-5.872l0.15-43.602c0.011-3.215,2.658-5.843,5.873-5.832
		l8.901,0.031c3.215,0.011,5.843,2.658,5.832,5.872l-0.15,43.602c-0.012,3.215-2.658,5.843-5.873,5.832L84.985,60.758z
		 M93.896,10.511l-8.49-0.03L85.25,55.73l8.489,0.028L93.896,10.511z"/>
	<path fill="#FFFFFF" d="M124.218,60.398l0.17-49.207l-6.511-0.022l0.018-5.11l19.121,0.066l-0.017,5.11l-6.513-0.022l-0.17,49.206
		L124.218,60.398z"/>
	<path fill="#FFFFFF" d="M156.214,60.509l0.087-25.139l-9.232-0.031l-0.086,25.14l-6.017-0.021l0.188-54.317l6.017,0.021
		l-0.083,24.15l9.23,0.032l0.084-24.149l6.019,0.021l-0.19,54.315L156.214,60.509z"/>
	<path fill="#FFFFFF" d="M167.432,60.549l0.188-54.317l17.062,0.059l-0.019,5.028l-11.044-0.038l-0.068,19.534l9.231,0.032
		l-0.019,5.11l-9.23-0.032l-0.067,19.617l11.044,0.038l-0.017,5.027L167.432,60.549z"/>
	<path fill="#FFFFFF" d="M217.822,60.723l0.171-49.207l-8.489-0.029l-0.171,49.207l-6.019-0.021l0.172-49.206l-8.489-0.029
		l-0.171,49.206l-6.016-0.021l0.188-54.316l6.018,0.021l-0.012,3.049c0.75-2.141,2.73-3.041,5.615-3.031l1.896,0.007
		c2.967,0.011,4.445,1.5,5.183,3.068c0.831-2.14,2.317-3.042,5.202-3.032l5.274,0.019c3.216,0.011,5.843,2.658,5.833,5.872
		l-0.168,48.465L217.822,60.723z"/>
	<path fill="#FFFFFF" d="M229.006,60.761l0.188-54.316l17.062,0.059l-0.017,5.028l-11.047-0.038l-0.066,19.534l9.23,0.032
		l-0.017,5.11l-9.231-0.031l-0.068,19.616l11.045,0.038l-0.018,5.027L229.006,60.761z"/>
</g>
<g>
	<rect x="5.5" y="69" fill="#FFFFFF" width="241" height="1"/>
</g>
<g>
	<path fill="#FFFFFF" d="M8.247,88.073v-4.207H6.659v4.207H5.5v-9.335c0-0.619,0.508-1.127,1.126-1.127h1.667
		c0.619,0,1.127,0.508,1.127,1.127v9.335H8.247z M8.247,78.58H6.659v4.317h1.588V78.58z"/>
	<path fill="#FFFFFF" d="M14.395,88.073c-0.635,0-1.143-0.508-1.143-1.127v-5.589c0-0.619,0.508-1.127,1.143-1.127h1.62
		c0.635,0,1.127,0.508,1.127,1.127v1.413h-1.127v-1.54h-1.62v5.859h1.62v-1.478h1.127v1.334c0,0.619-0.492,1.127-1.127,1.127H14.395
		z"/>
	<path fill="#FFFFFF" d="M21.256,88.073l-0.079-0.619c-0.191,0.43-0.508,0.619-1.064,0.619h-0.699c-0.619,0-1.127-0.508-1.127-1.127
		V80.23h1.144v6.859h1.683V80.23h1.143v7.843H21.256z"/>
	<path fill="#FFFFFF" d="M24.577,88.073c-0.635,0-1.144-0.508-1.144-1.127v-1.016h1.144v1.159h1.381v-1.478l-2.223-2.286
		c-0.174-0.189-0.27-0.333-0.27-0.73v-1.223c0-0.635,0.508-1.143,1.144-1.143h1.349c0.619,0,1.127,0.508,1.127,1.143v1.001h-1.127
		V81.23h-1.349v1.477l2.238,2.286c0.175,0.191,0.238,0.397,0.238,0.619v1.334c0,0.619-0.508,1.127-1.127,1.127H24.577z"/>
	<path fill="#FFFFFF" d="M28.755,88.073v-6.859h-1V80.23h1v-1.746h1.144v1.746h1.222v0.983h-1.222v6.859H28.755z"/>
	<path fill="#FFFFFF" d="M32.933,88.073c-0.635,0-1.144-0.508-1.144-1.127v-5.573c0-0.635,0.508-1.143,1.144-1.143h1.62
		c0.635,0,1.127,0.508,1.127,1.143v5.573c0,0.619-0.493,1.127-1.127,1.127H32.933z M34.552,81.23h-1.62v5.859h1.62V81.23z"/>
	<path fill="#FFFFFF" d="M42.335,88.073V81.23h-1.572v6.843H39.62V81.23h-1.572v6.843h-1.127V80.23h1.127v0.604
		c0.142-0.431,0.539-0.604,1.095-0.604h0.286c0.571,0,0.857,0.285,1.016,0.604c0.159-0.431,0.445-0.604,1-0.604h0.89
		c0.619,0,1.127,0.508,1.127,1.127v6.716H42.335z"/>
	<path fill="#FFFFFF" d="M51.246,88.073c-0.46,0-0.714-0.492-0.778-0.745c-0.079,0.271-0.317,0.745-0.825,0.745h-1.16
		c-0.619,0-1.127-0.508-1.127-1.127v-9.335h1.191v9.479h1.35v-9.479h1.143v9.479h1.35v-9.479h1.175v9.335
		c0,0.619-0.492,1.127-1.11,1.127H51.246z"/>
	<path fill="#FFFFFF" d="M55.918,88.073c-0.635,0-1.143-0.508-1.143-1.127v-5.573c0-0.635,0.508-1.143,1.143-1.143h1.62
		c0.634,0,1.127,0.508,1.127,1.143v5.573c0,0.619-0.493,1.127-1.127,1.127H55.918z M57.538,81.23h-1.62v5.859h1.62V81.23z"/>
	<path fill="#FFFFFF" d="M59.906,88.073V80.23h1.143v0.604c0.144-0.304,0.445-0.604,1.032-0.604h0.699v1h-1.731v6.843H59.906z"/>
	<path fill="#FFFFFF" d="M64.576,88.073c-0.619,0-1.127-0.508-1.127-1.127v-5.589c0-0.619,0.508-1.127,1.127-1.127h0.826
		c0.38,0,0.635,0.126,0.794,0.301V77.23h1.143v10.843H64.576z M66.196,81.23h-1.604v5.859h1.604V81.23z"/>
	<path fill="#FFFFFF" d="M68.675,90.439V80.23h2.763c0.619,0,1.127,0.508,1.127,1.143v5.573c0,0.619-0.508,1.127-1.127,1.127h-0.667
		c-0.524,0-0.81-0.238-0.953-0.508v2.874H68.675z M71.438,81.23h-1.62v5.859h1.62V81.23z"/>
	<path fill="#FFFFFF" d="M73.806,88.073V80.23h1.143v0.604c0.143-0.304,0.444-0.604,1.031-0.604h0.7v1h-1.731v6.843H73.806z"/>
	<path fill="#FFFFFF" d="M78.476,88.073c-0.619,0-1.127-0.508-1.127-1.127v-5.589c0-0.619,0.508-1.127,1.127-1.127h1.635
		c0.619,0,1.127,0.508,1.127,1.127v2.351c0,0.635-0.508,1.143-1.127,1.143h-1.635v2.239h1.62v-1.144h1.143v1
		c0,0.619-0.508,1.127-1.127,1.127H78.476z M80.096,81.23h-1.62v2.62h1.62V81.23z"/>
	<path fill="#FFFFFF" d="M83.494,88.073c-0.635,0-1.143-0.508-1.143-1.127v-1.016h1.143v1.159h1.382v-1.478l-2.224-2.286
		c-0.175-0.189-0.269-0.333-0.269-0.73v-1.223c0-0.635,0.508-1.143,1.143-1.143h1.35c0.619,0,1.127,0.508,1.127,1.143v1.001h-1.127
		V81.23h-1.35v1.477l2.238,2.286c0.176,0.191,0.239,0.397,0.239,0.619v1.334c0,0.619-0.508,1.127-1.127,1.127H83.494z"/>
	<path fill="#FFFFFF" d="M88.165,88.073c-0.635,0-1.143-0.508-1.143-1.127v-1.016h1.143v1.159h1.382v-1.478l-2.224-2.286
		c-0.174-0.189-0.269-0.333-0.269-0.73v-1.223c0-0.635,0.508-1.143,1.143-1.143h1.35c0.619,0,1.127,0.508,1.127,1.143v1.001h-1.127
		V81.23h-1.35v1.477l2.237,2.286c0.176,0.191,0.24,0.397,0.24,0.619v1.334c0,0.619-0.508,1.127-1.127,1.127H88.165z"/>
	<path fill="#FFFFFF" d="M94.965,88.073v-6.859h-1V80.23h1v-1.746h1.143v1.746h1.222v0.983h-1.222v6.859H94.965z"/>
	<path fill="#FFFFFF" d="M100.921,88.073V81.23h-1.62v6.843h-1.143V77.23h1.143v3.523c0.144-0.269,0.429-0.523,0.953-0.523h0.667
		c0.619,0,1.127,0.508,1.127,1.127v6.716H100.921z"/>
	<path fill="#FFFFFF" d="M104.384,88.073c-0.619,0-1.127-0.508-1.127-1.127v-5.589c0-0.619,0.508-1.127,1.127-1.127h1.635
		c0.619,0,1.127,0.508,1.127,1.127v2.351c0,0.635-0.508,1.143-1.127,1.143h-1.635v2.239h1.62v-1.144h1.143v1
		c0,0.619-0.508,1.127-1.127,1.127H104.384z M106.004,81.23h-1.62v2.62h1.62V81.23z"/>
	<path fill="#FFFFFF" d="M113.77,88.073V81.23h-1.572v6.843h-1.143V81.23h-1.572v6.843h-1.127V80.23h1.127v0.604
		c0.143-0.431,0.539-0.604,1.095-0.604h0.286c0.572,0,0.857,0.285,1.017,0.604c0.159-0.431,0.444-0.604,1-0.604h0.889
		c0.619,0,1.127,0.508,1.127,1.127v6.716H113.77z"/>
	<path fill="#FFFFFF" d="M117.234,88.073c-0.619,0-1.127-0.508-1.127-1.127v-5.589c0-0.619,0.508-1.127,1.127-1.127h1.636
		c0.619,0,1.127,0.508,1.127,1.127v2.351c0,0.635-0.508,1.143-1.127,1.143h-1.636v2.239h1.62v-1.144h1.143v1
		c0,0.619-0.508,1.127-1.127,1.127H117.234z M118.854,81.23h-1.62v2.62h1.62V81.23z"/>
	<path fill="#FFFFFF" d="M124.255,88.073v-6.859h-0.937V80.23h0.937v-1.873c0-0.619,0.508-1.127,1.127-1.127h1.413v0.983h-1.413
		v2.017h1.318v0.983h-1.318v6.859H124.255z"/>
	<path fill="#FFFFFF" d="M128.513,88.073c-0.636,0-1.144-0.508-1.144-1.127v-5.573c0-0.635,0.508-1.143,1.144-1.143h1.62
		c0.635,0,1.127,0.508,1.127,1.143v5.573c0,0.619-0.492,1.127-1.127,1.127H128.513z M130.133,81.23h-1.62v5.859h1.62V81.23z"/>
	<path fill="#FFFFFF" d="M132.5,88.073V80.23h1.144v0.604c0.144-0.304,0.444-0.604,1.032-0.604h0.699v1h-1.731v6.843H132.5z"/>
	<path fill="#FFFFFF" d="M139.808,88.073c-0.636,0-1.144-0.508-1.144-1.127v-1.016h1.144v1.159h1.382v-1.478l-2.224-2.286
		c-0.175-0.189-0.27-0.333-0.27-0.73v-1.223c0-0.635,0.508-1.143,1.144-1.143h1.35c0.619,0,1.127,0.508,1.127,1.143v1.001h-1.127
		V81.23h-1.35v1.477l2.237,2.286c0.176,0.191,0.239,0.397,0.239,0.619v1.334c0,0.619-0.508,1.127-1.127,1.127H139.808z"/>
	<path fill="#FFFFFF" d="M143.985,88.073v-6.859h-1.001V80.23h1.001v-1.746h1.144v1.746h1.221v0.983h-1.221v6.859H143.985z"/>
	<path fill="#FFFFFF" d="M148.164,88.073c-0.62,0-1.128-0.508-1.128-1.127v-2.222c0-0.62,0.508-1.128,1.128-1.128h0.73
		c0.444,0,0.73,0.175,0.889,0.397V81.23h-1.619v1.381h-1.128v-1.254c0-0.619,0.508-1.127,1.128-1.127h1.635
		c0.62,0,1.128,0.508,1.128,1.127v6.716H148.164z M149.783,84.581h-1.604v2.509h1.604V84.581z"/>
	<path fill="#FFFFFF" d="M152.198,88.073V80.23h1.144v0.604c0.143-0.304,0.444-0.604,1.03-0.604h0.699v1h-1.729v6.843H152.198z"/>
	<path fill="#FFFFFF" d="M156.614,88.073v-6.859h-1V80.23h1v-1.746h1.144v1.746h1.221v0.983h-1.221v6.859H156.614z"/>
	<path fill="#FFFFFF" d="M159.728,79.167v-1.365h1.302v1.365H159.728z M159.808,88.073V80.23h1.144v7.843H159.808z"/>
	<path fill="#FFFFFF" d="M165.109,88.073V81.23h-1.698v6.843h-1.126V80.23h1.126v0.523c0.159-0.269,0.445-0.523,0.969-0.523h0.745
		c0.621,0,1.129,0.508,1.129,1.127v6.716H165.109z"/>
	<path fill="#FFFFFF" d="M168.59,90.439c-0.633,0-1.126-0.492-1.126-1.127v-0.62h1.126v0.762h1.622v-2.096
		c-0.161,0.271-0.429,0.508-0.969,0.508h-0.653c-0.633,0-1.126-0.508-1.126-1.127v-5.382c0-0.619,0.493-1.127,1.126-1.127h2.765
		v9.082c0,0.635-0.51,1.127-1.143,1.127H168.59z M170.212,81.23h-1.622v5.638h1.622V81.23z"/>
	<path fill="#FFFFFF" d="M176.422,90.439c-0.636,0-1.142-0.508-1.142-1.143v-0.763h1.142v0.904h1.541v-2.08h-1.541
		c-0.636,0-1.142-0.508-1.142-1.126V80.23h1.157v6.145h1.525V80.23h1.143v9.066c0,0.635-0.493,1.143-1.127,1.143H176.422z"/>
	<path fill="#FFFFFF" d="M181.489,88.073c-0.636,0-1.142-0.508-1.142-1.127v-5.573c0-0.635,0.506-1.143,1.142-1.143h1.619
		c0.636,0,1.128,0.508,1.128,1.143v5.573c0,0.619-0.492,1.127-1.128,1.127H181.489z M183.108,81.23h-1.619v5.859h1.619V81.23z"/>
	<path fill="#FFFFFF" d="M188.414,88.073l-0.08-0.619c-0.189,0.43-0.507,0.619-1.062,0.619h-0.698c-0.621,0-1.127-0.508-1.127-1.127
		V80.23h1.143v6.859h1.683V80.23h1.144v7.843H188.414z"/>
	<path fill="#FFFFFF" d="M190.751,88.073V80.23h1.144v0.604c0.145-0.304,0.444-0.604,1.031-0.604h0.7v1h-1.731v6.843H190.751z"/>
	<path fill="#FFFFFF" d="M200.914,88.073c-0.475,0-0.762-0.522-0.792-0.745c-0.062,0.223-0.318,0.745-0.825,0.745h-1.128
		c-0.62,0-1.127-0.508-1.127-1.127V80.23h1.158v6.859h1.35V80.23h1.144v6.859h1.38V80.23h1.128v6.716
		c0,0.619-0.508,1.127-1.128,1.127H200.914z"/>
	<path fill="#FFFFFF" d="M205.54,88.073c-0.62,0-1.127-0.508-1.127-1.127v-5.589c0-0.619,0.507-1.127,1.127-1.127h1.635
		c0.62,0,1.127,0.508,1.127,1.127v2.351c0,0.635-0.507,1.143-1.127,1.143h-1.635v2.239h1.619v-1.144h1.143v1
		c0,0.619-0.507,1.127-1.127,1.127H205.54z M207.159,81.23h-1.619v2.62h1.619V81.23z"/>
	<path fill="#FFFFFF" d="M209.512,88.073V77.23h1.128v3.523c0.159-0.269,0.444-0.523,0.969-0.523h0.649
		c0.637,0,1.146,0.508,1.146,1.127v5.589c0,0.619-0.509,1.127-1.146,1.127H209.512z M212.258,81.23h-1.618v5.859h1.618V81.23z"/>
	<path fill="#FFFFFF" d="M217.264,90.439V80.23h2.764c0.617,0,1.128,0.508,1.128,1.143v5.573c0,0.619-0.511,1.127-1.128,1.127
		h-0.667c-0.524,0-0.81-0.238-0.954-0.508v2.874H217.264z M220.027,81.23h-1.621v5.859h1.621V81.23z"/>
	<path fill="#FFFFFF" d="M222.396,88.073V80.23h1.144v0.604c0.142-0.304,0.444-0.604,1.031-0.604h0.698v1h-1.729v6.843H222.396z"/>
	<path fill="#FFFFFF" d="M227.081,88.073c-0.636,0-1.144-0.508-1.144-1.127v-5.573c0-0.635,0.508-1.143,1.144-1.143h1.618
		c0.637,0,1.127,0.508,1.127,1.143v5.573c0,0.619-0.49,1.127-1.127,1.127H227.081z M228.699,81.23h-1.618v5.859h1.618V81.23z"/>
	<path fill="#FFFFFF" d="M230.116,90.439v-0.985h1.094V80.23h1.127v9.082c0,0.635-0.507,1.127-1.127,1.127H230.116z M231.084,79.167
		v-1.365h1.303v1.365H231.084z"/>
	<path fill="#FFFFFF" d="M234.706,88.073c-0.62,0-1.128-0.508-1.128-1.127v-5.589c0-0.619,0.508-1.127,1.128-1.127h1.634
		c0.62,0,1.127,0.508,1.127,1.127v2.351c0,0.635-0.507,1.143-1.127,1.143h-1.634v2.239h1.618v-1.144h1.143v1
		c0,0.619-0.507,1.127-1.127,1.127H234.706z M236.324,81.23h-1.618v2.62h1.618V81.23z"/>
	<path fill="#FFFFFF" d="M239.724,88.073c-0.633,0-1.142-0.508-1.142-1.127v-5.589c0-0.619,0.509-1.127,1.142-1.127h1.622
		c0.633,0,1.126,0.508,1.126,1.127v1.413h-1.126v-1.54h-1.622v5.859h1.622v-1.478h1.126v1.334c0,0.619-0.493,1.127-1.126,1.127
		H239.724z"/>
	<path fill="#FFFFFF" d="M244.143,88.073v-6.859h-1V80.23h1v-1.746h1.144v1.746h1.22v0.983h-1.22v6.859H244.143z"/>
</g>
</svg>
