<?xml version="1.0" encoding="utf-8"?>
<!-- Generator: Adobe Illustrator 16.0.0, SVG Export Plug-In . SVG Version: 6.00 Build 0)  -->
<!DOCTYPE svg PUBLIC "-//W3C//DTD SVG 1.1//EN" "http://www.w3.org/Graphics/SVG/1.1/DTD/svg11.dtd">
<svg version="1.1" id="Layer_1" xmlns="http://www.w3.org/2000/svg" xmlns:xlink="http://www.w3.org/1999/xlink" x="0px" y="0px"
	 width="84.899px" height="30px" viewBox="5.5 60.439 84.899 30" enable-background="new 5.5 60.439 84.899 30"
	 xml:space="preserve">
<path fill="#FFFFFF" d="M7.745,79.721l0.06-17.334l-2.294-0.008l0.006-1.801l6.736,0.023l-0.006,1.801l-2.293-0.008l-0.06,17.333
	L7.745,79.721z"/>
<path fill="#FFFFFF" d="M15.653,79.922c-1.132-0.004-2.058-0.937-2.054-2.068l0.053-15.359c0.004-1.133,0.936-2.059,2.068-2.055
	l3.136,0.011c1.132,0.004,2.058,0.937,2.054,2.068l-0.053,15.359c-0.004,1.133-0.937,2.059-2.069,2.055L15.653,79.922z
	 M18.792,62.222l-2.99-0.011l-0.055,15.94l2.991,0.01L18.792,62.222z"/>
<path fill="#FFFFFF" d="M27.856,79.79l-1.396-7.699l-1.684-0.006l-0.027,7.694l-2.12-0.008l0.067-19.134l4.936,0.018
	c1.132,0.004,2.058,0.936,2.054,2.068l-0.025,7.288c-0.003,0.812-0.47,1.508-1.139,1.854l1.541,7.933L27.856,79.79z M27.568,62.455
	l-2.758-0.01L24.782,70.4l2.758,0.01L27.568,62.455z"/>
<path fill="#FFFFFF" d="M33.5,79.983c-1.132-0.004-2.058-0.937-2.055-2.068l0.053-15.359c0.004-1.133,0.936-2.059,2.069-2.055
	l3.135,0.011c1.133,0.004,2.059,0.937,2.055,2.069L38.704,77.94c-0.004,1.132-0.936,2.058-2.069,2.054L33.5,79.983z M36.639,62.283
	l-2.991-0.011l-0.055,15.94l2.991,0.009L36.639,62.283z"/>
<path fill="#FFFFFF" d="M47.32,79.857l0.06-17.335l-2.293-0.008l0.006-1.8l6.735,0.023l-0.006,1.8l-2.294-0.008l-0.06,17.334
	L47.32,79.857z"/>
<path fill="#FFFFFF" d="M58.592,79.896l0.03-8.855l-3.252-0.011l-0.03,8.855l-2.12-0.007l0.066-19.134l2.12,0.007l-0.029,8.508
	l3.251,0.011l0.029-8.507l2.121,0.008l-0.067,19.133L58.592,79.896z"/>
<path fill="#FFFFFF" d="M62.543,79.91l0.066-19.134l6.01,0.021l-0.006,1.771l-3.891-0.013l-0.024,6.881l3.252,0.012l-0.006,1.8
	l-3.252-0.012l-0.023,6.911l3.89,0.013l-0.006,1.771L62.543,79.91z"/>
<path fill="#FFFFFF" d="M80.294,79.972l0.061-17.334l-2.991-0.011l-0.06,17.334l-2.12-0.007l0.061-17.334l-2.991-0.011l-0.06,17.334
	l-2.119-0.007l0.066-19.134l2.12,0.008l-0.004,1.073c0.264-0.754,0.962-1.071,1.978-1.067l0.668,0.003
	c1.045,0.004,1.565,0.528,1.826,1.08c0.292-0.754,0.816-1.071,1.833-1.067l1.857,0.006c1.134,0.004,2.059,0.937,2.055,2.069
	l-0.06,17.072L80.294,79.972z"/>
<path fill="#FFFFFF" d="M84.234,79.984L84.3,60.851l6.011,0.021l-0.006,1.771l-3.892-0.013l-0.023,6.881l3.251,0.012l-0.006,1.8
	l-3.251-0.011l-0.024,6.91l3.891,0.013l-0.006,1.771L84.234,79.984z"/>
<rect x="5.5" y="82.887" fill="#FFFFFF" width="84.896" height="0.353"/>
<path fill="#FFFFFF" d="M6.468,89.605v-1.481h-0.56v1.481H5.5v-3.288c0-0.218,0.179-0.396,0.396-0.396h0.587
	c0.218,0,0.397,0.179,0.397,0.396v3.288H6.468z M6.468,86.262h-0.56v1.521h0.56V86.262z"/>
<path fill="#FFFFFF" d="M8.633,89.605c-0.224,0-0.402-0.179-0.402-0.396V87.24c0-0.218,0.179-0.397,0.402-0.397h0.571
	c0.224,0,0.397,0.18,0.397,0.397v0.497H9.204v-0.542H8.633v2.063h0.571v-0.521h0.397v0.47c0,0.218-0.173,0.396-0.397,0.396
	L8.633,89.605L8.633,89.605z"/>
<path fill="#FFFFFF" d="M11.05,89.605l-0.028-0.218c-0.067,0.151-0.179,0.218-0.375,0.218h-0.246c-0.218,0-0.397-0.179-0.397-0.396
	v-2.366h0.403v2.416H11v-2.416h0.402v2.763H11.05z"/>
<path fill="#FFFFFF" d="M12.22,89.605c-0.224,0-0.403-0.179-0.403-0.396v-0.358h0.403v0.408h0.486v-0.521l-0.783-0.805
	c-0.061-0.067-0.095-0.117-0.095-0.257v-0.432c0-0.224,0.179-0.402,0.403-0.402h0.475c0.218,0,0.397,0.179,0.397,0.402v0.353h-0.397
	v-0.402h-0.475v0.521l0.789,0.805c0.062,0.067,0.083,0.141,0.083,0.218v0.471c0,0.218-0.179,0.396-0.397,0.396H12.22z"/>
<path fill="#FFFFFF" d="M13.692,89.605v-2.416H13.34v-0.347h0.352v-0.614h0.403v0.614h0.431v0.346h-0.431v2.416L13.692,89.605
	L13.692,89.605z"/>
<path fill="#FFFFFF" d="M15.164,89.605c-0.224,0-0.403-0.179-0.403-0.396v-1.963c0-0.224,0.179-0.403,0.403-0.403h0.571
	c0.224,0,0.397,0.18,0.397,0.403v1.963c0,0.218-0.174,0.396-0.397,0.396H15.164z M15.734,87.195h-0.57v2.063h0.57V87.195z"/>
<path fill="#FFFFFF" d="M18.476,89.605v-2.41h-0.554v2.41H17.52v-2.41h-0.554v2.41h-0.397v-2.763h0.397v0.213
	c0.05-0.152,0.19-0.213,0.386-0.213h0.101c0.201,0,0.302,0.101,0.358,0.213c0.056-0.152,0.157-0.213,0.352-0.213h0.313
	c0.218,0,0.397,0.18,0.397,0.397v2.365H18.476z"/>
<path fill="#FFFFFF" d="M21.615,89.605c-0.162,0-0.251-0.173-0.274-0.262c-0.028,0.096-0.112,0.262-0.291,0.262h-0.409
	c-0.218,0-0.397-0.179-0.397-0.396v-3.288h0.419v3.339h0.476v-3.339h0.403v3.339h0.476v-3.339h0.414v3.288
	c0,0.218-0.173,0.396-0.391,0.396H21.615z"/>
<path fill="#FFFFFF" d="M23.261,89.605c-0.224,0-0.403-0.179-0.403-0.396v-1.963c0-0.224,0.179-0.403,0.403-0.403h0.571
	c0.223,0,0.397,0.18,0.397,0.403v1.963c0,0.218-0.174,0.396-0.397,0.396H23.261z M23.832,87.195h-0.571v2.063h0.571V87.195z"/>
<path fill="#FFFFFF" d="M24.666,89.605v-2.763h0.402v0.213c0.051-0.107,0.157-0.213,0.364-0.213h0.246v0.353h-0.61v2.41H24.666z"/>
<path fill="#FFFFFF" d="M26.311,89.605c-0.218,0-0.397-0.179-0.397-0.396V87.24c0-0.218,0.179-0.397,0.397-0.397h0.291
	c0.134,0,0.224,0.044,0.28,0.106v-1.163h0.402v3.819H26.311z M26.881,87.195h-0.565v2.063h0.565V87.195z"/>
<path fill="#FFFFFF" d="M27.754,90.439v-3.597h0.974c0.218,0,0.397,0.18,0.397,0.403v1.963c0,0.218-0.179,0.396-0.397,0.396h-0.235
	c-0.185,0-0.285-0.084-0.335-0.179v1.013H27.754L27.754,90.439z M28.728,87.195h-0.571v2.063h0.571V87.195z"/>
<path fill="#FFFFFF" d="M29.562,89.605v-2.763h0.403v0.213c0.05-0.107,0.156-0.213,0.363-0.213h0.247v0.353h-0.609v2.41H29.562z"/>
<path fill="#FFFFFF" d="M31.207,89.605c-0.218,0-0.397-0.179-0.397-0.396V87.24c0-0.218,0.179-0.397,0.397-0.397h0.576
	c0.218,0,0.397,0.18,0.397,0.397v0.828c0,0.224-0.179,0.402-0.397,0.402h-0.576v0.789h0.571v-0.403h0.403v0.353
	c0,0.218-0.179,0.396-0.397,0.396H31.207z M31.778,87.195h-0.571v0.923h0.571V87.195z"/>
<path fill="#FFFFFF" d="M32.975,89.605c-0.224,0-0.402-0.179-0.402-0.396v-0.358h0.402v0.408h0.487v-0.521l-0.783-0.805
	c-0.062-0.067-0.095-0.117-0.095-0.257v-0.432c0-0.224,0.179-0.402,0.402-0.402h0.476c0.218,0,0.397,0.179,0.397,0.402v0.353h-0.397
	v-0.402h-0.476v0.521l0.789,0.805c0.062,0.067,0.084,0.141,0.084,0.218v0.471c0,0.218-0.179,0.396-0.397,0.396H32.975z"/>
<path fill="#FFFFFF" d="M34.62,89.605c-0.224,0-0.403-0.179-0.403-0.396v-0.358h0.403v0.408h0.487v-0.521l-0.783-0.805
	c-0.062-0.067-0.095-0.117-0.095-0.257v-0.432c0-0.224,0.179-0.402,0.402-0.402h0.476c0.218,0,0.397,0.179,0.397,0.402v0.353h-0.397
	v-0.402h-0.476v0.521l0.788,0.805c0.062,0.067,0.084,0.141,0.084,0.218v0.471c0,0.218-0.179,0.396-0.397,0.396H34.62z"/>
<path fill="#FFFFFF" d="M37.016,89.605v-2.416h-0.353v-0.347h0.353v-0.614h0.402v0.614h0.431v0.346h-0.431v2.416L37.016,89.605
	L37.016,89.605z"/>
<path fill="#FFFFFF" d="M39.114,89.605v-2.41h-0.571v2.41h-0.402v-3.819h0.402v1.241c0.051-0.096,0.151-0.185,0.336-0.185h0.235
	c0.218,0,0.397,0.18,0.397,0.397v2.365H39.114z"/>
<path fill="#FFFFFF" d="M40.333,89.605c-0.218,0-0.397-0.179-0.397-0.396V87.24c0-0.218,0.179-0.397,0.397-0.397h0.576
	c0.218,0,0.397,0.18,0.397,0.397v0.828c0,0.224-0.179,0.402-0.397,0.402h-0.576v0.789h0.571v-0.403h0.403v0.353
	c0,0.218-0.179,0.396-0.397,0.396H40.333z M40.904,87.195h-0.571v0.923h0.571V87.195z"/>
<path fill="#FFFFFF" d="M43.64,89.605v-2.41h-0.554v2.41h-0.403v-2.41H42.13v2.41h-0.397v-2.763h0.397v0.213
	c0.05-0.152,0.19-0.213,0.386-0.213h0.101c0.202,0,0.302,0.101,0.358,0.213c0.056-0.152,0.156-0.213,0.352-0.213h0.313
	c0.218,0,0.397,0.18,0.397,0.397v2.365H43.64z"/>
<path fill="#FFFFFF" d="M44.86,89.605c-0.218,0-0.397-0.179-0.397-0.396V87.24c0-0.218,0.179-0.397,0.397-0.397h0.576
	c0.218,0,0.397,0.18,0.397,0.397v0.828c0,0.224-0.179,0.402-0.397,0.402H44.86v0.789h0.57v-0.403h0.403v0.353
	c0,0.218-0.179,0.396-0.397,0.396H44.86z M45.431,87.195h-0.57v0.923h0.57V87.195z"/>
<path fill="#FFFFFF" d="M47.333,89.605v-2.416h-0.33v-0.347h0.33v-0.659c0-0.219,0.179-0.397,0.397-0.397h0.498v0.346H47.73v0.711
	h0.464v0.346H47.73v2.416L47.333,89.605L47.333,89.605z"/>
<path fill="#FFFFFF" d="M48.833,89.605c-0.224,0-0.403-0.179-0.403-0.396v-1.963c0-0.224,0.179-0.403,0.403-0.403h0.571
	c0.223,0,0.397,0.18,0.397,0.403v1.963c0,0.218-0.174,0.396-0.397,0.396H48.833z M49.404,87.195h-0.571v2.063h0.571V87.195z"/>
<path fill="#FFFFFF" d="M50.238,89.605v-2.763h0.403v0.213c0.051-0.107,0.156-0.213,0.363-0.213h0.246v0.353h-0.609v2.41H50.238z"/>
<path fill="#FFFFFF" d="M52.812,89.605c-0.224,0-0.403-0.179-0.403-0.396v-0.358h0.403v0.408h0.486v-0.521l-0.783-0.805
	c-0.062-0.067-0.095-0.117-0.095-0.257v-0.432c0-0.224,0.179-0.402,0.403-0.402h0.475c0.218,0,0.397,0.179,0.397,0.402v0.353h-0.397
	v-0.402h-0.475v0.521l0.788,0.805c0.062,0.067,0.084,0.141,0.084,0.218v0.471c0,0.218-0.179,0.396-0.397,0.396H52.812z"/>
<path fill="#FFFFFF" d="M54.284,89.605v-2.416h-0.353v-0.347h0.353v-0.614h0.403v0.614h0.43v0.346h-0.43v2.416L54.284,89.605
	L54.284,89.605z"/>
<path fill="#FFFFFF" d="M55.756,89.605c-0.218,0-0.397-0.179-0.397-0.396v-0.782c0-0.22,0.179-0.398,0.397-0.398h0.257
	c0.156,0,0.257,0.062,0.313,0.14v-0.973h-0.57v0.486h-0.397V87.24c0-0.218,0.179-0.397,0.397-0.397h0.576
	c0.219,0,0.397,0.18,0.397,0.397v2.365H55.756z M56.326,88.376h-0.565v0.884h0.565V88.376z"/>
<path fill="#FFFFFF" d="M57.177,89.605v-2.763h0.403v0.213c0.05-0.107,0.157-0.213,0.363-0.213h0.246v0.353H57.58v2.41H57.177z"/>
<path fill="#FFFFFF" d="M58.732,89.605v-2.416H58.38v-0.347h0.353v-0.614h0.403v0.614h0.43v0.346h-0.43v2.416L58.732,89.605
	L58.732,89.605z"/>
<path fill="#FFFFFF" d="M59.83,86.469v-0.481h0.458v0.481H59.83z M59.858,89.605v-2.763h0.403v2.763H59.858z"/>
<path fill="#FFFFFF" d="M61.725,89.605v-2.41h-0.598v2.41H60.73v-2.763h0.396v0.185c0.056-0.096,0.156-0.185,0.341-0.185h0.262
	c0.219,0,0.398,0.18,0.398,0.397v2.365H61.725z"/>
<path fill="#FFFFFF" d="M62.951,90.439c-0.223,0-0.396-0.174-0.396-0.397v-0.219h0.396v0.27h0.571v-0.739
	c-0.057,0.096-0.151,0.18-0.341,0.18h-0.23c-0.223,0-0.396-0.18-0.396-0.397V87.24c0-0.218,0.174-0.397,0.396-0.397h0.974v3.199
	c0,0.224-0.179,0.397-0.403,0.397H62.951L62.951,90.439z M63.522,87.195h-0.571v1.986h0.571V87.195z"/>
<path fill="#FFFFFF" d="M65.71,90.439c-0.224,0-0.402-0.179-0.402-0.403v-0.269h0.402v0.318h0.543v-0.732H65.71
	c-0.224,0-0.402-0.18-0.402-0.397v-2.113h0.408v2.165h0.537v-2.165h0.403v3.193c0,0.225-0.174,0.403-0.397,0.403H65.71z"/>
<path fill="#FFFFFF" d="M67.495,89.605c-0.224,0-0.402-0.179-0.402-0.396v-1.963c0-0.224,0.178-0.403,0.402-0.403h0.57
	c0.224,0,0.397,0.18,0.397,0.403v1.963c0,0.218-0.173,0.396-0.397,0.396H67.495z M68.065,87.195h-0.57v2.063h0.57V87.195z"/>
<path fill="#FFFFFF" d="M69.935,89.605l-0.028-0.218c-0.066,0.151-0.178,0.218-0.374,0.218h-0.246c-0.219,0-0.397-0.179-0.397-0.396
	v-2.366h0.403v2.416h0.593v-2.416h0.403v2.763H69.935z"/>
<path fill="#FFFFFF" d="M70.758,89.605v-2.763h0.403v0.213c0.052-0.107,0.157-0.213,0.363-0.213h0.247v0.353h-0.61v2.41H70.758z"/>
<path fill="#FFFFFF" d="M74.338,89.605c-0.167,0-0.268-0.184-0.279-0.262c-0.022,0.078-0.112,0.262-0.291,0.262h-0.397
	c-0.219,0-0.397-0.179-0.397-0.396v-2.366h0.408v2.416h0.476v-2.416h0.403v2.416h0.487v-2.416h0.397v2.366
	c0,0.218-0.18,0.396-0.397,0.396H74.338z"/>
<path fill="#FFFFFF" d="M75.968,89.605c-0.219,0-0.397-0.179-0.397-0.396V87.24c0-0.218,0.179-0.397,0.397-0.397h0.576
	c0.218,0,0.397,0.18,0.397,0.397v0.828c0,0.224-0.179,0.402-0.397,0.402h-0.576v0.789h0.57v-0.403h0.402v0.353
	c0,0.218-0.179,0.396-0.397,0.396H75.968z M76.538,87.195h-0.57v0.923h0.57V87.195z"/>
<path fill="#FFFFFF" d="M77.367,89.605v-3.819h0.397v1.241c0.056-0.096,0.156-0.185,0.341-0.185h0.229
	c0.224,0,0.404,0.18,0.404,0.397v1.969c0,0.218-0.18,0.396-0.404,0.396H77.367z M78.334,87.195h-0.57v2.063h0.57V87.195z"/>
<path fill="#FFFFFF" d="M80.097,90.439v-3.597h0.974c0.218,0,0.398,0.18,0.398,0.403v1.963c0,0.218-0.18,0.396-0.398,0.396h-0.234
	c-0.185,0-0.286-0.084-0.336-0.179v1.013H80.097L80.097,90.439z M81.071,87.195H80.5v2.063h0.571V87.195z"/>
<path fill="#FFFFFF" d="M81.905,89.605v-2.763h0.403v0.213c0.05-0.107,0.156-0.213,0.363-0.213h0.246v0.353h-0.609v2.41H81.905z"/>
<path fill="#FFFFFF" d="M83.556,89.605c-0.224,0-0.403-0.179-0.403-0.396v-1.963c0-0.224,0.179-0.403,0.403-0.403h0.57
	c0.224,0,0.397,0.18,0.397,0.403v1.963c0,0.218-0.173,0.396-0.397,0.396H83.556z M84.126,87.195h-0.57v2.063h0.57V87.195z"/>
<path fill="#FFFFFF" d="M84.625,90.439v-0.347h0.385v-3.25h0.397v3.199c0,0.224-0.179,0.397-0.397,0.397H84.625z M84.966,86.469
	v-0.481h0.459v0.481H84.966z"/>
<path fill="#FFFFFF" d="M86.242,89.605c-0.218,0-0.397-0.179-0.397-0.396V87.24c0-0.218,0.179-0.397,0.397-0.397h0.576
	c0.218,0,0.397,0.18,0.397,0.397v0.828c0,0.224-0.179,0.402-0.397,0.402h-0.576v0.789h0.57v-0.403h0.402v0.353
	c0,0.218-0.179,0.396-0.397,0.396H86.242z M86.812,87.195h-0.57v0.923h0.57V87.195z"/>
<path fill="#FFFFFF" d="M88.01,89.605c-0.223,0-0.403-0.179-0.403-0.396V87.24c0-0.218,0.18-0.397,0.403-0.397h0.571
	c0.223,0,0.397,0.18,0.397,0.397v0.497h-0.397v-0.542H88.01v2.063h0.571v-0.521h0.397v0.47c0,0.218-0.174,0.396-0.397,0.396
	L88.01,89.605L88.01,89.605z"/>
<path fill="#FFFFFF" d="M89.566,89.605v-2.416h-0.352v-0.347h0.352v-0.614h0.404v0.614h0.429v0.346H89.97v2.416L89.566,89.605
	L89.566,89.605z"/>
</svg>
