<?xml version="1.0" encoding="utf-8"?>
<!-- Generator: Adobe Illustrator 16.0.0, SVG Export Plug-In . SVG Version: 6.00 Build 0)  -->
<!DOCTYPE svg PUBLIC "-//W3C//DTD SVG 1.1//EN" "http://www.w3.org/Graphics/SVG/1.1/DTD/svg11.dtd">
<svg version="1.1" id="Layer_1" xmlns="http://www.w3.org/2000/svg" xmlns:xlink="http://www.w3.org/1999/xlink" x="0px" y="0px"
	 width="51.003px" height="30px" viewBox="5.532 30.789 51.003 30" enable-background="new 5.532 30.789 51.003 30"
	 xml:space="preserve">
<path fill="#FFFFFF" d="M8.959,60.368l0.092-26.591l-3.519-0.013l0.009-2.762l10.334,0.036l-0.01,2.762l-3.519-0.012L12.255,60.38
	L8.959,60.368z"/>
<path fill="#FFFFFF" d="M21.091,60.677c-1.737-0.006-3.158-1.436-3.151-3.173l0.081-23.563c0.005-1.737,1.436-3.158,3.173-3.152
	l4.81,0.017c1.737,0.006,3.158,1.436,3.152,3.173l-0.081,23.562c-0.006,1.737-1.437,3.158-3.174,3.152L21.091,60.677z
	 M25.906,33.522l-4.587-0.016l-0.084,24.454l4.588,0.015L25.906,33.522z"/>
<path fill="#FFFFFF" d="M39.812,60.475l-2.142-11.811l-2.583-0.01l-0.042,11.804l-3.251-0.011l0.102-29.354l7.572,0.027
	c1.737,0.006,3.158,1.436,3.152,3.173l-0.039,11.181c-0.004,1.247-0.721,2.313-1.747,2.845l2.363,12.169L39.812,60.475z
	 M39.37,33.881l-4.231-0.015l-0.042,12.205l4.231,0.015L39.37,33.881z"/>
<path fill="#FFFFFF" d="M48.47,60.772c-1.737-0.006-3.158-1.437-3.152-3.174l0.081-23.563c0.006-1.738,1.437-3.158,3.174-3.152
	l4.811,0.017c1.737,0.006,3.158,1.437,3.152,3.173l-0.082,23.564c-0.006,1.737-1.436,3.157-3.174,3.151L48.47,60.772z
	 M53.286,33.618l-4.588-0.016l-0.084,24.454l4.588,0.014L53.286,33.618z"/>
</svg>
